<svg xmlns="http://www.w3.org/2000/svg" xml:space="preserve" width="1500" height="1500" data-id="lg_KWFWqhNURw09rBSwkK" data-version="1"><path fill="#fff" stroke="transparent" d="M0 0h1500v1500H0z"/><g data-padding="20"><g fill="#2cd139"><path d="m1220.319 1149.852-127.553-330.455a19.05 19.05 0 0 0-10.573-10.765L892.34 731.377a19.05 19.05 0 0 0-13.431-.381l-6.954 2.476c56.298-87.829 120.598-206.332 120.598-291.017a218.144 218.144 0 0 0-436.098 0c0 103.737 97.165 258.343 157.94 344.84l-184.517-62.396a19.05 19.05 0 0 0-19.814 4.763L277.726 969.24a19.052 19.052 0 0 0 4.096 29.625L583.795 1173l.286.095.571.286q1.334.762 2.572 1.238l.762.19.953.287q1.905.476 3.524.476l.667.095h.477l1.143-.095q1.905-.095 3.81-.667l1.81-.572q.953-.19 1.62-.571l264.535-130.506a19 19 0 0 0 6.382 1.144q2.191 0 4.287-.572l318.167 130.505q3.524 1.334 7.144 1.334a19.22 19.22 0 0 0 13.337-5.43c5.43-5.239 7.24-13.336 4.477-20.385m-491.54-513.925c0-26.101 20.958-47.344 46.964-47.82 25.91 0 47.82 21.91 47.82 47.82 0 25.339-21.91 46.772-47.82 46.772a47.63 47.63 0 0 1-46.868-46.772m-44.772-254.82c-4.096-3.524-3.62-9.525 0-12.955 0 0 36.866-43.82 101.166-43.82 52.869 0 101.832 36.866 101.832 87.068 0 65.73-74.874 67.634-74.874 121.456a9.526 9.526 0 0 1-9.526 9.526h-53.345a9.526 9.526 0 0 1-9.43-9.526v-20.862c0-41.914 68.872-60.204 68.872-92.116 0-15.432-16.004-29.34-37.437-29.34-34.96 0-44.391 31.436-56.87 20.386ZM579.7 998.77a200 200 0 0 0 40.104 10.098q4 0 6.668-2.858l-43.248 122.79-261.106-150.701 117.74-121.265q4.097 9.335 11.813 23.624a9.53 9.53 0 1 0 16.67-9.24c-7.335-13.337-12.002-23.815-14.098-29.245l74.779-77.16 163.18 55.25-62.967 178.517a9.526 9.526 0 0 0-7.907-8.574q-17.909-2.857-34.865-9.05a9.526 9.526 0 0 0-12.288 5.621 9.526 9.526 0 0 0 5.715 12.193m279.492-119.932a9.526 9.526 0 0 0-1.906 12.384l1.43 1.524-4.383 114.026-227.384 112.12 104.404-295.685 6.859-2.382c13.05 17.623 21.814 28.769 23.434 30.865a17.337 17.337 0 0 0 27.149 0c2.477-3.24 21.91-28.197 47.725-65.348l26.673-9.336Zm33.245 130.22 4.763-127.076 4.763-1.048a9.526 9.526 0 1 0-3.62-18.67h-.38l3.333-86.02 158.703 64.586 108.595 281.492Z"/><path d="M505.302 923.826a9.548 9.548 0 1 0-14.288 12.67 257 257 0 0 0 28.577 27.339 9.526 9.526 0 0 0 13.432-1.239 9.526 9.526 0 0 0-1.334-13.336q-13.812-11.431-26.387-25.434m211.381 44.39q-17.242 7.622-34.674 13.242a9.526 9.526 0 0 0 5.906 18.1q18.194-5.907 36.484-13.909a9.526 9.526 0 1 0-7.62-17.432m289.588-92.592q-18.86-8.098-37.913-12.384a9.547 9.547 0 1 0-4 18.67q17.146 3.716 34.293 11.146a9.526 9.526 0 1 0 7.62-17.432M805.56 916.847a715 715 0 0 1-31.245 20.767 9.542 9.542 0 0 0 10.098 16.194q14.956-9.526 32.102-21.338a9.54 9.54 0 0 0-10.955-15.623m246.435-3.81a9.526 9.526 0 0 0 1.62 13.336q14.003 10.955 27.91 24.386a9.533 9.533 0 0 0 13.242-13.717 372 372 0 0 0-29.435-25.72 9.526 9.526 0 0 0-13.337 1.715"/></g><path fill="transparent" stroke="transparent" stroke-width="2.469" d="M253.704 250h992.592v1000H253.704z"/></g></svg>