<svg xmlns="http://www.w3.org/2000/svg" xml:space="preserve" width="1500" height="1500" data-id="lg_KWFWqhNURw09rBSwkK" data-version="1"><path fill="#fff" stroke="transparent" d="M0 0h1500v1500H0z"/><g data-padding="20"><g transform="translate(192.638 216.772)scale(30.95362)"><linearGradient id="a" x1="0" x2="1" y1="0" y2="0" gradientUnits="objectBoundingBox"><stop offset="0%" stop-color="#dede50"/><stop offset="100%" stop-color="#559c49"/></linearGradient><path fill="url(#a)" d="M33.506 19.329c-2.76 0-5 2.22-5 4.97v1.53h-4c-.82 0-1.5.68-1.5 1.5v20c0 .82.68 1.5 1.5 1.5h19a.5.5 0 0 0 .37-.15c.62-.18 1.13-.67 1.13-1.35v-20c0-.82-.68-1.5-1.5-1.5h-3v-1.53a4.98 4.98 0 0 0-6-4.87q-.48-.1-1-.1m1 1.14c1.73.44 3 1.97 3 3.83v1.53h-6v-1.53c0-1.86 1.27-3.4 3-3.83m-2.23.07a5 5 0 0 0-1.77 3.76v1.53h-1v-1.53a3.9 3.9 0 0 1 2.77-3.76m4.47 0a3.9 3.9 0 0 1 2.76 3.76v1.53h-1v-1.53c0-1.51-.7-2.85-1.76-3.76m-12.24 6.29h1.6q-.1.23-.1.5v.01c0 .22-.15.46-.46.61-.33.15-.75.15-1.08 0-.31-.15-.46-.39-.46-.61v-.01q0-.1.04-.2l.1-.16a.5.5 0 0 1 .36-.14m3 0h3v1.59a1.5 1.5 0 0 0 .5 2.91c.82 0 1.5-.68 1.5-1.5 0-.65-.42-1.2-1-1.4v-1.6h8v1.6c-.58.2-1 .75-1 1.4 0 .82.68 1.5 1.5 1.5s1.5-.68 1.5-1.5c0-.65-.42-1.2-1-1.41v-1.59h3c.29 0 .5.21.5.5v20c0 .29-.21.5-.5.5h-16l-.2-.04a.5.5 0 0 1-.3-.46v-20q0-.1.04-.2l.1-.16a.5.5 0 0 1 .36-.14m-3.5 2 .04.02c.6.29 1.32.29 1.92 0l.04-.02v18.5q0 .26.1.5h-1.6a.5.5 0 0 1-.5-.5Zm7 .5a.5.5 0 1 1 0 1 .5.5 0 0 1 0-1m9 0a.5.5 0 1 1 0 1 .5.5 0 0 1 0-1m-4.53 4.5q-.4.02-.75.18-.5.27-.77.78l-.2.34-.48.83-.5.87h1.15l.22-.36.48-.84.2-.36h.01c.11-.2.2-.29.34-.36s.15-.07.31-.07c.18 0 .23 0 .35.06q.18.09.35.39l.07.11.14.25.46.79-.6-.16-.25.97 2.19.58.58-2.19-.96-.26-.13.5-.43-.74-.14-.24-.05-.09a2 2 0 0 0-.78-.8 2 2 0 0 0-.8-.18Zm-3.84 6-2.18.59.26.96.48-.13-.29.49-.2.35q-.35.55-.34 1.08c.01.64.38 1.21.95 1.49h.01l.26.1h.03l.03.02c.19.05.31.04.82.04h1.54v-1h-1.53c-.5 0-.63-.02-.58 0l-.16-.07c-.09-.04-.04 0-.15-.11-.18-.18-.22-.26-.22-.5 0-.18 0-.22.19-.52l.22-.38.33-.56.15.6.97-.26Zm7.78 1 .37.63.49.84q.16.29.22.36c.15.26.14.22.15.46 0 .2.01.1-.02.2a1 1 0 0 1-.16.28.5.5 0 0 1-.33.2c-.1.02-.07.02-.56.02h-1.64l.36-.36-.7-.7-1.6 1.6 1.6 1.6.7-.7-.43-.44h1.72c.5 0 .64-.02.8-.06q.48-.12.82-.5.26-.28.37-.64.07-.2.07-.51 0-.5-.3-.98c.01.03-.09-.13-.2-.34l-.5-.84-.07-.12Z" transform="translate(-16 -16.25)"/></g><path fill="transparent" stroke="transparent" stroke-width="1.511" d="M394.26 250h711.48v1000H394.26z"/></g></svg>