<svg xmlns="http://www.w3.org/2000/svg" xml:space="preserve" width="1500" height="1500" data-id="lg_KWFWqhNURw09rBSwkK" data-version="1"><path fill="#fff" stroke="transparent" d="M0 0h1500v1500H0z"/><g data-padding="20"><g transform="translate(257.89 765.091)scale(10.63999)"><linearGradient id="a" x1="0" x2="1" y1="0" y2="0" gradientUnits="objectBoundingBox"><stop offset="0%" stop-color="#0f3054"/><stop offset="49.8%" stop-color="#3b8dcb"/><stop offset="100%" stop-color="#0f3054"/></linearGradient><path fill="url(#a)" d="m88.89 137.666.02-.02h-.04Z" transform="translate(-46.71 -94.63)"/></g><g transform="translate(158.515 293.736)scale(10.63999)"><linearGradient id="b" x1="0" x2="1" y1="0" y2="0" gradientUnits="objectBoundingBox"><stop offset="0%" stop-color="#0f3054"/><stop offset="49.8%" stop-color="#3b8dcb"/><stop offset="100%" stop-color="#0f3054"/></linearGradient><path fill="url(#b)" d="M101.32 104.736c0-2.91 1.16-5.56 3.02-7.53a45 45 0 0 0-5.16-1.68c7.55-5.08 12.74-15.09 12.74-24.1a23.04 23.04 0 0 0-46.06 0c0 9.01 5.2 19.02 12.74 24.1-18.05 4.58-31.42 20.24-31.42 31.85 0 6.86 20.84 10.27 41.7 10.27l-11.69-11.66 9.84-23.78h-.1l-3.82-4.38a17.1 17.1 0 0 0 5.77 1.06c2 0 3.92-.4 5.76-1.06l-3.82 4.37h-.1l9.84 23.78-11.67 11.67c5.44 0 10.88-.22 15.95-.69a11 11 0 0 1-3.54-8.04Z" transform="translate(-37.37 -50.33)"/></g><g transform="translate(599.435 543.452)scale(10.63999)"><linearGradient id="c" x1="0" x2="1" y1="0" y2="0" gradientUnits="objectBoundingBox"><stop offset="0%" stop-color="#0f3054"/><stop offset="49.8%" stop-color="#3b8dcb"/><stop offset="100%" stop-color="#0f3054"/></linearGradient><path fill="url(#c)" d="M129.64 97.196h-17.3a7.55 7.55 0 0 0-7.54 7.54v24.19a7.55 7.55 0 0 0 7.54 7.54h17.3a7.55 7.55 0 0 0 7.54-7.54v-24.2a7.55 7.55 0 0 0-7.55-7.54m5.39 31.72a5.4 5.4 0 0 1-5.4 5.39h-17.28a5.4 5.4 0 0 1-5.39-5.39v-24.16a5.4 5.4 0 0 1 5.39-5.39h17.3a5.4 5.4 0 0 1 5.39 5.4Z" transform="translate(-78.81 -73.8)"/></g><g transform="translate(508.57 608.256)scale(10.63999)"><linearGradient id="d" x1="0" x2="1" y1="0" y2="0" gradientUnits="objectBoundingBox"><stop offset="0%" stop-color="#0f3054"/><stop offset="49.8%" stop-color="#3b8dcb"/><stop offset="100%" stop-color="#0f3054"/></linearGradient><path fill="url(#d)" d="M113.67 121.506h-2.44c-.56 0-1.01.28-1.01.63v1.54c0 .35.45.64 1 .64h2.45c.55 0 1-.29 1-.64v-1.54c0-.35-.45-.63-1-.63" transform="translate(-70.26 -79.89)"/></g><g transform="translate(599.435 446.741)scale(10.63999)"><linearGradient id="e" x1="0" x2="1" y1="0" y2="0" gradientUnits="objectBoundingBox"><stop offset="0%" stop-color="#0f3054"/><stop offset="49.8%" stop-color="#3b8dcb"/><stop offset="100%" stop-color="#0f3054"/></linearGradient><path fill="url(#e)" d="M130.1 103.426h-18.22c-1.2 0-2.18.88-2.18 1.95v4.73c0 1.07.98 1.94 2.18 1.94h18.22c1.2 0 2.17-.87 2.17-1.94v-4.73c0-1.07-.98-1.94-2.17-1.94" transform="translate(-78.81 -64.71)"/></g><g transform="translate(569.112 608.256)scale(10.63999)"><linearGradient id="f" x1="0" x2="1" y1="0" y2="0" gradientUnits="objectBoundingBox"><stop offset="0%" stop-color="#0f3054"/><stop offset="49.8%" stop-color="#3b8dcb"/><stop offset="100%" stop-color="#0f3054"/></linearGradient><path fill="url(#f)" d="M119.37 121.506h-2.46c-.55 0-1 .28-1 .63v1.54c0 .35.45.64 1 .64h2.46c.55 0 1-.29 1-.64v-1.54c0-.35-.45-.63-1-.63" transform="translate(-75.96 -79.89)"/></g><g transform="translate(629.757 608.256)scale(10.63999)"><linearGradient id="g" x1="0" x2="1" y1="0" y2="0" gradientUnits="objectBoundingBox"><stop offset="0%" stop-color="#0f3054"/><stop offset="49.8%" stop-color="#3b8dcb"/><stop offset="100%" stop-color="#0f3054"/></linearGradient><path fill="url(#g)" d="M125.06 121.506h-2.45c-.56 0-1 .28-1 .63v1.54c0 .35.45.64 1 .64h2.45c.55 0 1-.29 1-.64v-1.54c0-.35-.45-.63-1-.63" transform="translate(-81.66 -79.89)"/></g><g transform="translate(690.3 608.256)scale(10.63999)"><linearGradient id="h" x1="0" x2="1" y1="0" y2="0" gradientUnits="objectBoundingBox"><stop offset="0%" stop-color="#0f3054"/><stop offset="49.8%" stop-color="#3b8dcb"/><stop offset="100%" stop-color="#0f3054"/></linearGradient><path fill="url(#h)" d="M130.76 121.506h-2.46c-.55 0-1 .28-1 .63v1.54c0 .35.45.64 1 .64h2.46c.55 0 1-.29 1-.64v-1.54c0-.35-.45-.63-1-.63" transform="translate(-87.35 -79.89)"/></g><g transform="translate(508.57 555.373)scale(10.63999)"><linearGradient id="i" x1="0" x2="1" y1="0" y2="0" gradientUnits="objectBoundingBox"><stop offset="0%" stop-color="#0f3054"/><stop offset="49.8%" stop-color="#3b8dcb"/><stop offset="100%" stop-color="#0f3054"/></linearGradient><path fill="url(#i)" d="M111.22 119.346h2.44c.56 0 1.01-.28 1.01-.63v-1.55c0-.35-.45-.63-1-.63h-2.45c-.55 0-1 .28-1 .63v1.54c0 .36.45.64 1 .64" transform="translate(-70.27 -74.92)"/></g><g transform="translate(569.112 555.373)scale(10.63999)"><linearGradient id="j" x1="0" x2="1" y1="0" y2="0" gradientUnits="objectBoundingBox"><stop offset="0%" stop-color="#0f3054"/><stop offset="49.8%" stop-color="#3b8dcb"/><stop offset="100%" stop-color="#0f3054"/></linearGradient><path fill="url(#j)" d="M116.92 119.346h2.44c.55 0 1-.28 1-.63v-1.55c0-.35-.45-.63-1-.63h-2.45c-.55 0-1 .28-1 .63v1.54c0 .36.45.64 1 .64" transform="translate(-75.95 -74.92)"/></g><g transform="translate(629.655 555.373)scale(10.63999)"><linearGradient id="k" x1="0" x2="1" y1="0" y2="0" gradientUnits="objectBoundingBox"><stop offset="0%" stop-color="#0f3054"/><stop offset="49.8%" stop-color="#3b8dcb"/><stop offset="100%" stop-color="#0f3054"/></linearGradient><path fill="url(#k)" d="M122.61 119.346h2.44c.56 0 1-.28 1-.63v-1.55c0-.35-.44-.63-1-.63h-2.44c-.56 0-1.01.28-1.01.63v1.54c0 .36.45.64 1 .64" transform="translate(-81.65 -74.92)"/></g><g transform="translate(690.198 555.373)scale(10.63999)"><linearGradient id="l" x1="0" x2="1" y1="0" y2="0" gradientUnits="objectBoundingBox"><stop offset="0%" stop-color="#0f3054"/><stop offset="49.8%" stop-color="#3b8dcb"/><stop offset="100%" stop-color="#0f3054"/></linearGradient><path fill="url(#l)" d="M128.3 119.346h2.45c.55 0 1-.28 1-.63v-1.55c0-.35-.45-.63-1-.63h-2.45c-.55 0-1 .28-1 .63v1.54c0 .36.45.64 1 .64" transform="translate(-87.34 -74.92)"/></g><g transform="translate(508.468 646.352)scale(10.63999)"><linearGradient id="m" x1="0" x2="1" y1="0" y2="0" gradientUnits="objectBoundingBox"><stop offset="0%" stop-color="#0f3054"/><stop offset="49.8%" stop-color="#3b8dcb"/><stop offset="100%" stop-color="#0f3054"/></linearGradient><path fill="url(#m)" d="M113.67 125.086h-2.44c-.56 0-1.02.29-1.02.64v1.54c0 .35.46.64 1.02.64h2.44c.55 0 1-.3 1-.64v-1.54c0-.35-.45-.64-1-.64" transform="translate(-70.26 -83.47)"/></g><g transform="translate(569.112 646.352)scale(10.63999)"><linearGradient id="n" x1="0" x2="1" y1="0" y2="0" gradientUnits="objectBoundingBox"><stop offset="0%" stop-color="#0f3054"/><stop offset="49.8%" stop-color="#3b8dcb"/><stop offset="100%" stop-color="#0f3054"/></linearGradient><path fill="url(#n)" d="M119.36 125.086h-2.45c-.55 0-1 .29-1 .64v1.54c0 .35.45.64 1 .64h2.45c.56 0 1.01-.3 1.01-.64v-1.54c0-.35-.45-.64-1-.64" transform="translate(-75.96 -83.47)"/></g><g transform="translate(629.757 646.352)scale(10.63999)"><linearGradient id="o" x1="0" x2="1" y1="0" y2="0" gradientUnits="objectBoundingBox"><stop offset="0%" stop-color="#0f3054"/><stop offset="49.8%" stop-color="#3b8dcb"/><stop offset="100%" stop-color="#0f3054"/></linearGradient><path fill="url(#o)" d="M125.06 125.086h-2.45c-.56 0-1 .29-1 .64v1.54c0 .35.45.64 1 .64h2.45c.55 0 1-.3 1-.64v-1.54c0-.35-.45-.64-1-.64" transform="translate(-81.66 -83.47)"/></g><g transform="translate(690.198 646.352)scale(10.63999)"><linearGradient id="p" x1="0" x2="1" y1="0" y2="0" gradientUnits="objectBoundingBox"><stop offset="0%" stop-color="#0f3054"/><stop offset="49.8%" stop-color="#3b8dcb"/><stop offset="100%" stop-color="#0f3054"/></linearGradient><path fill="url(#p)" d="M130.75 125.086h-2.44c-.56 0-1.01.29-1.01.64v1.54c0 .35.45.64 1 .64h2.45c.56 0 1-.3 1-.64v-1.54c0-.35-.44-.64-1-.64" transform="translate(-87.34 -83.47)"/></g><g transform="translate(508.468 684.55)scale(10.63999)"><linearGradient id="q" x1="0" x2="1" y1="0" y2="0" gradientUnits="objectBoundingBox"><stop offset="0%" stop-color="#0f3054"/><stop offset="49.8%" stop-color="#3b8dcb"/><stop offset="100%" stop-color="#0f3054"/></linearGradient><path fill="url(#q)" d="M113.67 128.676h-2.45c-.55 0-1 .28-1 .63v1.54c0 .35.45.64 1 .64h2.44c.56 0 1-.29 1-.64v-1.54c0-.35-.44-.63-1-.63" transform="translate(-70.26 -87.06)"/></g><g transform="translate(569.112 684.55)scale(10.63999)"><linearGradient id="r" x1="0" x2="1" y1="0" y2="0" gradientUnits="objectBoundingBox"><stop offset="0%" stop-color="#0f3054"/><stop offset="49.8%" stop-color="#3b8dcb"/><stop offset="100%" stop-color="#0f3054"/></linearGradient><path fill="url(#r)" d="M119.36 128.676h-2.45c-.55 0-1 .28-1 .63v1.54c0 .35.45.64 1 .64h2.45c.56 0 1.01-.29 1.01-.64v-1.54c0-.35-.45-.63-1-.63" transform="translate(-75.96 -87.06)"/></g><g transform="translate(629.655 684.55)scale(10.63999)"><linearGradient id="s" x1="0" x2="1" y1="0" y2="0" gradientUnits="objectBoundingBox"><stop offset="0%" stop-color="#0f3054"/><stop offset="49.8%" stop-color="#3b8dcb"/><stop offset="100%" stop-color="#0f3054"/></linearGradient><path fill="url(#s)" d="M125.05 128.676h-2.44c-.56 0-1.01.28-1.01.63v1.54c0 .35.45.64 1 .64h2.45c.56 0 1-.29 1-.64v-1.54c0-.35-.44-.63-1-.63" transform="translate(-81.65 -87.06)"/></g><g transform="translate(690.198 684.55)scale(10.63999)"><linearGradient id="t" x1="0" x2="1" y1="0" y2="0" gradientUnits="objectBoundingBox"><stop offset="0%" stop-color="#0f3054"/><stop offset="49.8%" stop-color="#3b8dcb"/><stop offset="100%" stop-color="#0f3054"/></linearGradient><path fill="url(#t)" d="M130.75 128.676h-2.45c-.55 0-1 .28-1 .63v1.54c0 .35.45.64 1 .64h2.45c.55 0 1-.29 1-.64v-1.54c0-.35-.45-.63-1-.63" transform="translate(-87.34 -87.06)"/></g><path fill="transparent" stroke="transparent" stroke-width="1.302" d="M250 260.417h1000v979.166H250z"/></g></svg>