<svg xmlns="http://www.w3.org/2000/svg" xml:space="preserve" width="1500" height="1500" data-id="lg_KWFWqhNURw09rBSwkK" data-version="1"><path fill="#fff" stroke="transparent" d="M0 0h1500v1500H0z"/><g data-padding="20"><g transform="matrix(13.46038 0 0 11.44728 321.551 322.805)"><linearGradient id="a" x1="0" x2="1" y1="0" y2="0" gradientUnits="objectBoundingBox"><stop offset="0%" stop-color="#0f3054"/><stop offset="49.8%" stop-color="#3b8dcb"/><stop offset="100%" stop-color="#0f3054"/></linearGradient><path fill="url(#a)" fill-rule="evenodd" d="M95.65 55.542a9 9 0 0 0-8.24-5.57h-.03l-.44.01a9 9 0 0 0-7.81 5.56v-.01a9 9 0 0 0-.66 3.38q-.01 1.83.98 3.77a12 12 0 0 0 1.28 1.99c.3.39.63.76.97 1.12q.47.45.65.86.09.2.12.5.05.35.05.8v.64q0 .55.2 1.06.2.48.58.86h.02q.38.37.84.58h.01q.51.22 1.05.22h4.33q.55 0 1.05-.22a2.7 2.7 0 0 0 1.66-2.5v-.62q-.01-.47.04-.8.03-.3.1-.53.1-.2.28-.43v-.01q.16-.21.39-.41l.03-.03q.5-.54.94-1.08.77-.98 1.28-1.99 1-1.93.98-3.77 0-1.76-.65-3.37m12.03 10.08a19.7 19.7 0 0 1-6.06 14.55q-6 6.05-14.53 6.05a20 20 0 0 1-10.39-2.75q-.22.27-.55.41l-9.58 4.55a1.6 1.6 0 0 1-2.12-2.12l4.54-9.66q.13-.28.35-.47a20 20 0 0 1-2.85-10.56 19.9 19.9 0 0 1 6.98-15.48q1.96-1.74 4.16-2.88a20 20 0 0 1 9.46-2.23q8.52 0 14.53 6.02a19.7 19.7 0 0 1 6.06 14.57m-18.04-10.6q-.63-.3-1.32-.34a1 1 0 0 1-.7-.34 1 1 0 0 1-.27-.74q.03-.4.35-.69.3-.27.73-.26a5.7 5.7 0 0 1 5.3 5.62q0 .42-.3.72t-.7.3a1 1 0 0 1-.72-.3 1 1 0 0 1-.3-.72c0-1.4-.8-2.67-2.07-3.26m3.8 5.99q0 .45-.33.79-.31.3-.79.31-.45 0-.77-.31a1 1 0 0 1-.33-.8q0-.45.33-.78.32-.32.77-.32.48 0 .8.32.32.33.32.79m-48.73 20.32a9.5 9.5 0 0 1 6.94-2.86q4.07 0 6.92 2.86a9.4 9.4 0 0 1 2.9 6.95q0 4.05-2.9 6.92a9.4 9.4 0 0 1-6.92 2.89q-4.05 0-6.95-2.89a9.4 9.4 0 0 1-2.85-6.92q0-4.07 2.86-6.95m-3.24 21.34a8 8 0 0 1 5.75-2.37h8.74q1.2 0 2.26.3.56.1 1.13.35l11.19 4.89 5.54-12.31a4.5 4.5 0 0 1 2.62-2.47 4.5 4.5 0 0 1 3.62.1 4.6 4.6 0 0 1 2.49 2.62 4.6 4.6 0 0 1-.11 3.63l-7.42 16.5q-1.74 3.56-5.75 2.79a18 18 0 0 1-4.58-1.4l-1.5-.65v10.34H39.1v-16.57q0-3.36 2.37-5.75m48.48-30.18H84.9q-.64 0-1.08.46-.46.43-.46 1.06t.44 1.08l.02.01q.44.44 1.08.44h5.04q.63 0 1.08-.44.44-.45.44-1.1 0-.6-.45-1.05v-.02a1.5 1.5 0 0 0-1.07-.44m-5.45 4.59h-.01q-.45.44-.44 1.07 0 .64.45 1.08t1.08.44h3.64q.6 0 1.06-.44h.01q.45-.44.44-1.08 0-.63-.44-1.07-.45-.45-1.07-.46h-3.64q-.63 0-1.08.45" transform="translate(-43.49 -45.42)"/></g><path fill="transparent" stroke="transparent" stroke-width="1.221" d="M250 254.274h1000v991.452H250z"/></g></svg>