<svg xmlns="http://www.w3.org/2000/svg" xml:space="preserve" width="128" height="128" data-id="lg_KWFWqhNURw09rBSwkK" data-version="1" viewBox="0 0 128 128"><g data-padding="20"><g transform="translate(54.086 54.079)scale(.17706)"><path fill="#61ff63" d="M-199.425-223.234H311.42c13.78 0 24.96 10.631 24.96 23.734v388.872c0 9.013-5.361 17.244-13.852 21.263l-256 120.965a25.071 23.838 0 0 1-22.253-.018l-254.846-120.93a24.888 23.664 0 0 1-13.816-21.245V-199.5c0-13.103 11.18-23.734 24.96-23.734"/><rect width="531.668" height="352.108" x="-757.28" y="-668.325" fill="none" rx="0" ry="0" transform="matrix(.7 0 0 .7 388.34 354.87)"/><g transform="matrix(.7 0 0 .7 331.731 282.854)"><linearGradient id="a" x1="0" x2="1" y1="0" y2="0" gradientUnits="objectBoundingBox"><stop offset="0%" stop-color="#0f3054"/><stop offset="49.8%" stop-color="#3b8dcb"/><stop offset="100%" stop-color="#0f3054"/></linearGradient><path fill="url(#a)" d="M-104.606-115.721q-10.97 0-17.9-4.65-6.93-4.64-10.21-13.77t-3.28-22.58v-64.46q0-12.18 3.2-20.82 3.2-8.65 10.17-13.3 6.97-4.64 18.26-4.64 8.48 0 14.33 2.64t9.45 7.65q3.6 5 5.24 12.17 1.65 7.17 1.65 16.3v64.46q0 13.45-3.17 22.58-3.16 9.13-9.97 13.77-6.8 4.65-17.77 4.65m0-18.58q4 0 6-2.4t2.68-7.33q.69-4.92.69-12.45v-65.66q0-9.21-1.73-14.22-1.72-5-7.4-5-5.85 0-7.93 4.84-2.08 4.85-2.08 14.3v65.74q0 7.69.68 12.61.68 4.93 2.8 7.25t6.29 2.32" transform="translate(-386.6 -304.44)"/></g><path fill="url(#a)" d="M-24.136-115.721q-10.97 0-17.85-4.12-6.89-4.13-10.09-12.5-3.21-8.37-3.21-21.18v-104.74h21.47v104.34q0 5.93.52 10.41.52 4.49 2.52 6.97t6.56 2.48q4.57 0 6.61-2.44t2.52-6.93q.48-4.48.48-10.49v-104.34h21.46v104.74q0 12.81-3.16 21.18t-10.01 12.5q-6.84 4.12-17.82 4.12m72.48-1.6h-21.47v-140.94h35.48q11.05 0 16.5 4.32 5.44 4.33 7.16 12.66 1.72 8.32 1.72 20.34 0 12.41-2.52 19.5-2.52 7.08-10.29 9.48 3.68.65 6.17 3.01 2.48 2.36 4 6.88 1.52 4.53 2.2 11.62.68 7.08.68 17.33v4.49q0 3.68.04 8.69.04 5 .12 9.97.08 4.96.24 8.48.16 3.53.4 4.17h-21.46q-.24-.4-.36-4.13-.12-3.72-.24-9.49-.12-5.76-.16-12.41-.04-6.64-.04-13.09v-11.41q0-6.33-.92-9.57t-3.36-4.53q-2.44-1.28-7.01-1.52l-6.88-.4Zm.08-124.44v41.24h8.56q3.93 0 5.97-1.77 2.04-1.76 2.8-6.48.76-4.73.76-13.61v-.89q0-7.44-.72-11.45-.72-4-3-5.52t-7.09-1.52Zm-296.52 291.23h-18.98v-140.94h26.66l20.02 102.98 18.82-102.98h26.83v140.94h-19.14v-52.54l.8-48.2-18.98 100.1h-17.06l-19.77-100.1.8 48.2Zm116.51 0h-21.46v-140.94h21.46Z" transform="matrix(.7 0 0 .7 61.111 69.746)"/><path fill="url(#a)" d="M-84.336 51.069q-8.81 0-14.7-2.77-5.88-2.76-9.29-8.08-3.4-5.33-4.84-12.98-1.44-7.64-1.44-17.41v-12.58h20.34v14.18q0 11.37 1.92 16.33 1.92 4.97 7.61 4.97 3.84 0 5.8-1.8t2.64-5.77q.68-3.96.68-10.37 0-7.93-3.32-14.49-3.32-6.57-10.05-13.62l-10.41-10.73q-4.32-4.48-7.81-9.53-3.48-5.04-5.52-11.25-2.04-6.2-2.04-13.89 0-11.13 2.72-18.82t9.21-11.65q6.48-3.96 17.77-3.96 8.49 0 13.98 2.6 5.48 2.6 8.57 7.61 3.08 5 4.36 12.17t1.28 16.37v8.73h-19.78v-10.09q0-6.4-.68-10.65-.68-4.24-2.52-6.36-1.84-2.13-5.37-2.13-3.36 0-5.44 1.49-2.08 1.48-3 4.56t-.92 7.97q0 4.4 1.12 7.61 1.12 3.2 3.44 6.16t5.77 6.65l11.61 12.57q8.33 8.97 12.97 18.66t4.64 21.62q0 12.65-2.72 21.26t-9.13 13.01q-6.4 4.41-17.45 4.41" transform="matrix(.7 0 0 .7 61.104 69.746)"/><path fill="url(#a)" d="M-14.276 51.069q-8.8 0-14.69-2.77-5.89-2.76-9.29-8.08-3.4-5.33-4.84-12.98-1.45-7.64-1.45-17.41v-12.58h20.34v14.18q0 11.37 1.93 16.33 1.92 4.97 7.6 4.97 3.85 0 5.81-1.8t2.64-5.77q.68-3.96.68-10.37 0-7.93-3.32-14.49-3.32-6.57-10.05-13.62l-10.41-10.73q-4.32-4.48-7.81-9.53-3.48-5.04-5.52-11.25-2.05-6.2-2.05-13.89 0-11.13 2.73-18.82 2.72-7.69 9.21-11.65 6.48-3.96 17.77-3.96 8.49 0 13.98 2.6 5.48 2.6 8.57 7.61 3.08 5 4.36 12.17t1.28 16.37v8.73h-19.78v-10.09q0-6.4-.68-10.65-.68-4.24-2.52-6.36-1.84-2.13-5.37-2.13-3.36 0-5.44 1.49-2.08 1.48-3.01 4.56-.92 3.08-.92 7.97 0 4.4 1.13 7.61 1.12 3.2 3.44 6.16t5.76 6.65l11.62 12.57q8.32 8.97 12.97 18.66 4.64 9.69 4.64 21.62 0 12.65-2.72 21.26t-9.13 13.01q-6.41 4.41-17.46 4.41m66.31-1.6h-21.46v-140.94h21.46Zm51.17 1.6q-10.97 0-17.9-4.65-6.93-4.64-10.21-13.77t-3.28-22.58v-64.47q0-12.17 3.2-20.82 3.2-8.64 10.17-13.29 6.97-4.64 18.26-4.64 8.49 0 14.33 2.64 5.85 2.64 9.45 7.65 3.61 5 5.25 12.17t1.64 16.29v64.47q0 13.45-3.16 22.58-3.17 9.13-9.97 13.77-6.81 4.65-17.78 4.65m0-18.58q4 0 6-2.4 2.01-2.41 2.69-7.33.68-4.93.68-12.45v-65.67q0-9.21-1.72-14.21-1.73-5.01-7.41-5.01-5.85 0-7.93 4.85-2.08 4.84-2.08 14.29v65.75q0 7.68.68 12.61.68 4.92 2.8 7.25 2.12 2.32 6.29 2.32m70.15 16.98h-19.78v-140.94h16.81l29.87 84.56-1.52-38.44v-46.12h19.3v140.94h-15.21l-30.67-87.53 1.2 37Z" transform="matrix(.7 0 0 .7 61.111 69.746)"/><g transform="matrix(4.03 0 0 -.67 401.05 558.99)"><filter id="b" width="162%" height="162%" x="-31%" y="-31%"><feGaussianBlur in="SourceAlpha" stdDeviation="3"/><feOffset dx="3" dy="-3" result="oBlur"/><feFlood flood-color="#000" flood-opacity="1"/><feComposite in2="oBlur" operator="in"/><feMerge><feMergeNode/><feMergeNode in="SourceGraphic"/></feMerge></filter><path fill="#fff" d="M4.637 604.313h-80l40-80Z" filter="url(#b)" transform="translate(-50 -50)"/></g></g><path fill="transparent" stroke="transparent" stroke-width=".184" d="M12.5 12.684h103v102.632h-103z"/></g></svg>