<svg xmlns="http://www.w3.org/2000/svg" xml:space="preserve" width="2000" height="1500" data-id="lg_KWFWqhNURw09rBSwkK" data-version="1" viewBox="0 0 2000 1500"><path fill="#fff" stroke="transparent" d="M0 0h2000v1500H0z"/><g data-padding="20"><g transform="translate(-1486.05 -1113.317)scale(2.42164)"><rect width="458.136" height="122.04" x="397.531" y="307.77" fill="none" rx="0" ry="0" transform="translate(414.43 563.67)"/><path fill="#405dff" d="M869.739 967.51q-9.02 0-16.69-2.76-7.67-2.75-13.42-7.91-5.75-5.15-8.94-12.39-3.18-7.24-3.18-16.25 0-8.97 3.08-16.23 3.07-7.26 8.61-12.47 5.53-5.22 13.01-8.02 7.48-2.81 16.34-2.81 4.1 0 8.31.65 4.22.64 8.29 2.13 4.08 1.48 7.75 4.02l-5.29 9.51q-4.1-2.6-8.88-3.89-4.78-1.3-9.86-1.3-6.59 0-11.93 1.97-5.35 1.97-9.13 5.67t-5.8 8.94q-2.03 5.24-2.03 11.77 0 9.18 3.89 15.61 3.89 6.42 10.72 9.75 6.83 3.32 15.74 3.32 4.37 0 7.88-.84t5.67-1.92v-18.25h-17.17v-10.04h28.03v35.31q-2.97 2-7.43 3.46-4.45 1.46-9.18 2.21-4.72.76-8.39.76m56.85 0q-5.56 0-9.78-2.08-4.21-2.08-6.56-5.89-2.35-3.8-2.35-8.99 0-4.37 2.22-7.91 2.21-3.54 6.88-5.86t12.02-3.1q7.34-.79 17.66.24l.21 8.21q-7.34-1.03-12.63-.87-5.3.17-8.67 1.33-3.38 1.16-4.97 3.08-1.59 1.91-1.59 4.4 0 3.88 2.78 5.99t7.64 2.11q4.16 0 7.45-1.52 3.3-1.51 5.21-4.26 1.92-2.76 1.92-6.48v-14.2q0-3.57-1.51-6.19t-4.59-4.07q-3.08-1.46-7.67-1.46-4.21 0-8.32 1.27-4.1 1.27-7.83 3.97l-3.34-8.75q5.02-3.4 10.47-4.81 5.46-1.4 10.48-1.4 7.45 0 12.77 2.35t8.18 7.07q2.86 4.73 2.86 11.91v34.29h-10.69v-6.32q-2.7 3.83-7.51 5.89-4.8 2.05-10.74 2.05m66.97 0q-7.83 0-13.88-3.7t-9.48-10.1-3.43-14.55q0-5.89 1.95-11.04 1.94-5.16 5.53-9.05t8.53-6.07q4.95-2.19 10.94-2.19 7.29 0 12.64 2.91 5.34 2.92 8.91 8.1l-2.49 2.65v-36.34h11.88v77.76h-10.69v-12.85l1.73 2.7q-2.92 5.07-8.35 8.42-5.42 3.35-13.79 3.35m2.16-10.53q4.97 0 8.83-2.19t6.07-6.18q2.22-4 2.22-9.45 0-5.46-2.22-9.48-2.21-4.02-6.07-6.18t-8.83-2.16-8.8 2.16q-3.84 2.16-6.05 6.18-2.22 4.02-2.22 9.48 0 5.45 2.22 9.45 2.21 3.99 6.07 6.18t8.78 2.19m66.53 33.21q-6 0-10.8-1.05-4.81-1.06-8.19-3.06-3.37-1.99-5.15-4.8t-1.78-6.27q0-2.75 1.48-5.18 1.49-2.43 4.43-4.18 2.94-1.76 7.21-2.62-3.19-1.62-4.73-3.68-1.54-2.05-1.54-4.69 0-2.27 1.33-4.3 1.32-2.02 3.78-3.61 2.45-1.6 5.8-2.62 3.35-1.03 7.4-1.19l2.59 5.18q-3.35-.05-5.7.52-2.34.56-3.61 1.56t-1.27 2.4q0 1.84 2.1 2.68 2.11.83 5.94 1.16l9.18.7q6.75.54 11.53 2.21 4.78 1.68 7.35 4.7 2.56 3.03 2.56 7.67 0 3.94-2.13 7.32-2.13 3.37-6.1 5.86-3.97 2.48-9.48 3.88-5.51 1.41-12.2 1.41m1.18-8.21q8.05 0 12.67-2.4 4.61-2.41 4.61-6.24 0-2.92-3.07-4.54-3.08-1.62-9.4-2.05l-9.83-.75q-3.45.27-5.97 1.29-2.51 1.03-3.8 2.65-1.3 1.62-1.3 3.67 0 2.48 1.95 4.37 1.94 1.89 5.56 2.95 3.62 1.05 8.58 1.05m-.37-33.05q-6.7 0-12.02-2.54-5.32-2.53-8.4-6.85-3.07-4.32-3.07-9.67t3.1-9.67q3.11-4.32 8.42-6.85 5.32-2.54 11.97-2.54 6.64 0 11.93 2.54 5.29 2.53 8.4 6.85 3.1 4.32 3.1 9.67 0 5.29-3.08 9.61-3.07 4.32-8.37 6.89-5.29 2.56-11.98 2.56m0-8.91q3.67 0 6.53-1.27t4.48-3.56q1.62-2.3 1.62-5.32 0-4.54-3.54-7.37-3.53-2.84-9.09-2.84-3.73 0-6.57 1.3-2.83 1.3-4.45 3.59-1.62 2.3-1.62 5.32 0 4.48 3.54 7.32 3.53 2.83 9.1 2.83m32.45-17.76-24.14-.44-4.43-8.26 28.68-1.13Zm34.71 45.25q-8.64 0-15.17-3.54-6.54-3.54-10.18-9.91-3.65-6.37-3.65-14.79 0-6.16 2.11-11.37t5.94-9.05q3.83-3.83 8.99-5.94 5.16-2.1 11.26-2.1 6.64 0 11.83 2.35 5.18 2.35 8.61 6.56t4.86 9.85q1.43 5.65.46 12.23h-42.66q-.11 4.81 2.1 8.4 2.22 3.59 6.35 5.59t9.75 2q4.53 0 8.77-1.38t7.7-4.08l4.59 8.54q-2.6 2.1-6.27 3.59-3.67 1.48-7.67 2.27-3.99.78-7.72.78m-16.9-34.45h30.29q-.16-6.05-3.86-9.51-3.7-3.45-10.5-3.45-6.59 0-10.94 3.45-4.34 3.46-4.99 9.51m76.79 34.44q-7.83 0-12.53-4.54-4.7-4.53-4.7-13.88v-52.27h11.88v15.61h14.85v9.83h-14.85v24.24q0 5.62 2.13 7.91 2.14 2.3 6.03 2.3 1.89 0 3.56-.43 1.67-.44 3.02-1.14l2.11 9.61q-2.32 1.19-5.32 1.98-3 .78-6.18.78m-15.66-45.25h-13.29v-9.83h13.29Zm57.62 45.2q-6.65 0-12.42-1.89-5.78-1.89-9.72-5.07l4.48-8.7q3.72 2.92 8.39 4.59 4.68 1.68 9.21 1.68 5.24 0 8.16-1.84 2.91-1.83 2.91-5.13 0-3.13-2.51-4.61-2.51-1.49-9.53-3.11-10.1-2.11-14.66-5.97t-4.56-10.72q0-4.8 2.67-8.5t7.37-5.81q4.7-2.1 10.85-2.1 6 0 11.29 1.7t9.18 4.78l-4.21 8.75q-2-1.79-4.65-3.08-2.64-1.3-5.59-2.03-2.94-.73-5.85-.73-4.54 0-7.38 1.76-2.83 1.75-2.83 4.83 0 3.19 2.7 4.7t9.29 3.02q10.37 2.27 14.85 6.05t4.48 10.48q0 5.13-2.75 8.94-2.76 3.8-7.7 5.91-4.94 2.1-11.47 2.1"/><rect width="263.025" height="377.42" x="495.086" y="180.08" fill="none" rx="0" ry="0" transform="translate(414.29 365.33)"/><path fill="#405dff" d="M1061.599 843.55q-27.89 0-51.6-8.52-23.72-8.52-41.5-24.46-17.79-15.95-27.64-38.33-9.86-22.38-9.86-50.27 0-27.72 9.52-50.18t26.64-38.58q17.12-16.11 40.25-24.8 23.13-8.68 50.51-8.68 12.7 0 25.72 2 13.03 2.01 25.64 6.6t23.96 12.44l-16.36 29.39q-12.7-8.01-27.48-12.02t-30.47-4.01q-20.38 0-36.91 6.1-16.53 6.09-28.22 17.53t-17.96 27.64q-6.26 16.2-6.26 36.41 0 28.39 12.03 48.26 12.02 19.87 33.14 30.14 21.13 10.27 48.69 10.27 13.52 0 24.38-2.59 10.85-2.58 17.53-5.92v-56.45h-53.1v-31.06h86.67v109.22q-9.19 6.17-22.96 10.68-13.78 4.51-28.39 6.85-14.62 2.34-25.97 2.34"/><g stroke="#fff" stroke-width="13" transform="translate(378.06 335.44)scale(1.17)"><path d="M314.679 315.206H756.43"/>undefined
        undefined</g><g stroke="#fff" stroke-width="13" transform="translate(383.97 365.72)scale(1.17)"><path d="M314.679 315.206H756.43"/>undefined
        undefined</g><g stroke="#fff" stroke-width="13" transform="translate(421.94 301.14)scale(1.17)"><path d="M314.679 315.206H756.43"/>undefined
        undefined</g></g><path fill="transparent" stroke="transparent" stroke-width="2.511" d="M295.62 187.5h1408.76v1125H295.62z"/></g></svg>