<svg xmlns="http://www.w3.org/2000/svg" xml:space="preserve" width="128" height="128" data-id="lg_KWFWqhNURw09rBSwkK" data-version="1" viewBox="0 0 128 128"><g data-padding="20"><g transform="translate(53.776 53.811)scale(.18225)"><rect width="667.519" height="84.615" x="-822.113" y="-547.88" fill="none" rx="0" ry="0" transform="matrix(.7 0 0 .7 388.32 601.71)"/><g transform="matrix(.7 0 0 .7 185.327 599.337)"><linearGradient id="a" x1="0" x2="1" y1="0" y2="0" gradientUnits="objectBoundingBox"><stop offset="0%" stop-color="#0f3054"/><stop offset="49.8%" stop-color="#3b8dcb"/><stop offset="100%" stop-color="#0f3054"/></linearGradient><path fill="url(#a)" d="m-262.873 92.587-6.25 2.64q-.73-2.38-1.96-4.36-1.22-1.97-2.92-3.38t-3.86-2.19q-2.16-.79-4.72-.79-2.74 0-5.02.92-2.29.91-4.1 2.46-1.81 1.56-3.16 3.64-1.35 2.09-2.25 4.44-.9 2.36-1.35 4.89-.46 2.52-.46 4.93 0 3.84.9 7.64.89 3.81 2.85 6.84 1.95 3.04 5.06 4.92t7.53 1.88q2.42 0 3.77-1.08t1.35-3.78v-16.16h14.52v26.14h-4.21l-2.56-4.13q-3.51 2.67-7.73 3.93t-8.61 1.26q-3.87 0-7.44-.95-3.56-.95-6.64-2.71-3.07-1.75-5.57-4.24-2.51-2.48-4.28-5.52-1.77-3.03-2.74-6.6-.97-3.56-.97-7.44 0-3.87.97-7.44.97-3.56 2.74-6.62 1.77-3.05 4.28-5.54 2.5-2.48 5.57-4.24 3.08-1.75 6.64-2.7 3.57-.95 7.44-.95 3.73 0 7.3.87 3.56.88 6.63 2.66 3.07 1.77 5.47 4.46 2.39 2.68 3.78 6.3" transform="translate(-200.07 -611.35)"/></g><path fill="url(#a)" d="m-217.973 93.687-6.95 11.52q-.44-1.47-1.13-3.29-.69-1.83-1.72-3.42-1.02-1.59-2.45-2.67-1.42-1.08-3.29-1.08-1.72 0-2.98.88-1.26.87-2.14 2.28t-1.44 3.18q-.57 1.78-.88 3.59t-.42 3.47-.11 2.87v21.17h-12.39v-42.23h4.75l5.01 9.84q1.02-2.38 2.34-4.37 1.31-2 3.03-3.44t3.9-2.25q2.17-.8 4.91-.8 1.43 0 3.19.23 1.75.24 3.43.81t3.11 1.48 2.23 2.23" transform="matrix(.7 0 0 .7 45.278 171.399)"/><path fill="url(#a)" d="M-203.753 112.147q2.27.52 4.54.81 2.26.29 4.57.29 2.41 0 4.48-.46 2.06-.45 3.58-1.53t2.39-2.87q.88-1.79.88-4.46 0-2.16-.58-3.95-.59-1.79-1.74-3.07t-2.83-2q-1.69-.71-3.92-.71-2.08 0-3.74.77-1.67.77-2.93 2.07-1.26 1.29-2.16 3.01-.89 1.72-1.48 3.58-.58 1.87-.84 3.77-.25 1.9-.25 3.58v.59q0 .29.03.58m30.46-8.33q0 2.59-.84 4.62t-2.29 3.57q-1.44 1.53-3.34 2.59t-4.06 1.74-4.44.97q-2.29.29-4.44.29-2.75 0-5.42-.38-2.67-.39-5.26-1.23.4 2.42 1.28 4.59.88 2.18 2.34 3.8 1.46 1.63 3.6 2.58t5.06.95q1.94 0 3.7-.58 1.75-.59 3.21-1.65 1.47-1.06 2.58-2.52 1.12-1.46 1.81-3.25l5.34 1.97q-1.21 2.89-3.31 4.99t-4.75 3.47-5.63 2.03-5.91.66q-4.82 0-8.92-1.63-4.09-1.62-7.06-4.55-2.96-2.92-4.64-6.98t-1.68-8.89q0-4.82 1.68-8.88t4.64-6.98q2.97-2.93 7.06-4.56 4.1-1.62 8.92-1.62 2.34 0 4.79.33 2.45.32 4.76 1.04 2.3.71 4.35 1.84 2.04 1.14 3.56 2.8t2.41 3.86q.9 2.19.9 5.01m17.88 8.33q2.27.52 4.53.81 2.27.29 4.57.29 2.42 0 4.48-.46 2.07-.45 3.59-1.53 1.51-1.08 2.39-2.87t.88-4.46q0-2.16-.59-3.95-.58-1.79-1.73-3.07-1.16-1.28-2.84-2-1.68-.71-3.91-.71-2.08 0-3.75.77-1.66.77-2.92 2.07-1.26 1.29-2.16 3.01t-1.48 3.58q-.59 1.87-.84 3.77-.26 1.9-.26 3.58v.59q0 .29.04.58m30.46-8.33q0 2.59-.85 4.62-.84 2.03-2.28 3.57-1.44 1.53-3.35 2.59-1.9 1.06-4.05 1.74-2.16.68-4.45.97-2.28.29-4.44.29-2.74 0-5.41-.38-2.67-.39-5.27-1.23.41 2.42 1.28 4.59.88 2.18 2.34 3.8 1.47 1.63 3.61 2.58 2.13.95 5.06.95 1.94 0 3.69-.58 1.76-.59 3.22-1.65t2.58-2.52q1.11-1.46 1.81-3.25l5.34 1.97q-1.21 2.89-3.31 4.99-2.11 2.1-4.76 3.47t-5.63 2.03-5.9.66q-4.83 0-8.92-1.63-4.1-1.62-7.06-4.55-2.96-2.92-4.64-6.98-1.69-4.06-1.69-8.89 0-4.82 1.69-8.88 1.68-4.06 4.64-6.98 2.96-2.93 7.06-4.56 4.09-1.62 8.92-1.62 2.34 0 4.79.33 2.45.32 4.75 1.04 2.3.71 4.35 1.84 2.05 1.14 3.57 2.8 1.51 1.66 2.41 3.86.9 2.19.9 5.01m50.89 4.17q0 4.27-1.04 8.92-1.04 4.64-2.91 9.1-1.86 4.46-4.46 8.39-2.59 3.93-5.7 6.78l-4.65-2.52q.99-1.83 1.87-4.09.88-2.27 1.59-4.81t1.28-5.25q.57-2.7.95-5.35.38-2.66.58-5.16.21-2.5.21-4.66 0-1.43-.11-3.05-.11-1.63-.46-3.26t-.93-3.12q-.59-1.5-1.56-2.64-.97-1.13-2.34-1.83-1.37-.69-3.23-.69-1.83 0-3.26.82-1.42.83-2.52 2.16t-1.88 3.05q-.79 1.72-1.28 3.53-.5 1.81-.72 3.57-.22 1.75-.22 3.14v21.17h-12.39v-42.23h4.75l5.67 9.84q1.02-2.45 2.56-4.47 1.54-2.01 3.47-3.43 1.94-1.43 4.3-2.2 2.36-.76 5.1-.76 4.39 0 7.64 1.42 3.26 1.43 5.41 3.97 2.16 2.54 3.22 6.03t1.06 7.63" transform="matrix(.7 0 0 .7 45.278 171.392)"/><path fill="url(#a)" d="M-41.343 102.457v6.73h-24.57v-6.73Z" transform="matrix(.7 0 0 .7 45.271 171.399)"/><path fill="url(#a)" d="M-18.053 79.757q0 1.39-.53 2.63t-1.44 2.16q-.91.91-2.16 1.44-1.24.53-2.63.53t-2.61-.53q-1.23-.53-2.14-1.44-.92-.92-1.45-2.16t-.53-2.63.53-2.61q.53-1.23 1.45-2.14.91-.92 2.14-1.45 1.22-.53 2.61-.53t2.63.53q1.25.53 2.16 1.45.91.91 1.44 2.14.53 1.22.53 2.61m-.54 10.24v42.19h-12.4v-42.19Z" transform="matrix(.7 0 0 .7 45.271 171.392)"/><path fill="url(#a)" d="M34.927 107.987q0 4.27-1.04 8.92-1.04 4.64-2.91 9.1-1.86 4.46-4.46 8.39-2.59 3.93-5.7 6.78l-4.64-2.52q.98-1.83 1.86-4.09.88-2.27 1.59-4.81.72-2.54 1.28-5.25.57-2.7.95-5.35.39-2.66.59-5.16t.2-4.66q0-1.43-.11-3.05-.11-1.63-.46-3.26t-.93-3.12q-.59-1.5-1.55-2.64-.97-1.13-2.34-1.83-1.38-.69-3.24-.69-1.83 0-3.25.82-1.43.83-2.53 2.16-1.09 1.33-1.88 3.05t-1.28 3.53-.71 3.57q-.22 1.75-.22 3.14v21.17h-12.4v-42.23h4.76l5.66 9.84q1.03-2.45 2.56-4.47 1.54-2.01 3.48-3.43 1.93-1.43 4.29-2.2 2.36-.76 5.1-.76 4.39 0 7.64 1.42 3.26 1.43 5.42 3.97 2.15 2.54 3.21 6.03t1.06 7.63m21.14-28.23q0 1.39-.53 2.63t-1.45 2.16q-.91.91-2.15 1.44-1.25.53-2.64.53t-2.61-.53q-1.23-.53-2.14-1.44-.91-.92-1.44-2.16t-.53-2.63.53-2.61q.53-1.23 1.44-2.14.91-.92 2.14-1.45 1.22-.53 2.61-.53t2.64.53q1.24.53 2.15 1.45.92.91 1.45 2.14.53 1.22.53 2.61m-.55 10.24v42.19h-12.4v-42.19Zm26.25 4.86v37.33h-12.39v-37.33h-7.68v-4.9h7.68v-15.54h12.39v15.54h12.8v4.9Zm31.52-15.1q0 1.39-.53 2.63t-1.45 2.16q-.91.91-2.15 1.44-1.25.53-2.64.53t-2.61-.53q-1.23-.53-2.14-1.44-.91-.92-1.44-2.16t-.53-2.63.53-2.61q.53-1.23 1.44-2.14.91-.92 2.14-1.45 1.22-.53 2.61-.53t2.64.53q1.24.53 2.15 1.45.92.91 1.45 2.14.53 1.22.53 2.61m-.55 10.24v42.19h-12.4v-42.19Zm52.87-.04v42.23h-12.36v-5.05q-2.19 3-5.28 4.45-3.09 1.44-6.79 1.44-4.82 0-8.62-1.72-3.81-1.72-6.44-4.7t-4.02-7-1.39-8.63q0-4.6 1.39-8.63 1.39-4.02 4.02-7t6.44-4.7q3.8-1.71 8.62-1.71 2.45 0 4.67.73 2.21.73 4.05 2.06 1.85 1.34 3.26 3.22t2.21 4.19l5.49-9.18Zm-12.43 21.02q0-1.64-.17-3.47-.16-1.83-.56-3.62-.41-1.79-1.12-3.42t-1.83-2.89q-1.11-1.26-2.68-1.99-1.58-.73-3.66-.73-2.09 0-3.62.75-1.54.75-2.63 2.01-1.1 1.26-1.81 2.91-.72 1.64-1.12 3.43-.4 1.8-.57 3.61-.16 1.8-.16 3.41t.16 3.44q.17 1.83.57 3.62t1.12 3.44q.71 1.64 1.81 2.9 1.09 1.27 2.63 2.01 1.53.75 3.62.75 1.9 0 3.38-.78 1.48-.79 2.6-2.1 1.11-1.32 1.88-3t1.24-3.48q.48-1.79.7-3.56t.22-3.24" transform="matrix(.7 0 0 .7 45.278 171.392)"/><path fill="url(#a)" d="M191.817 94.857v37.33h-12.39v-37.33h-7.68v-4.9h7.68v-15.54h12.39v15.54h12.8v4.9Zm31.52-15.1q0 1.39-.53 2.63t-1.44 2.16q-.92.91-2.16 1.44t-2.63.53-2.62-.53q-1.22-.53-2.14-1.44-.91-.92-1.44-2.16t-.53-2.63.53-2.61q.53-1.23 1.44-2.14.92-.92 2.14-1.45 1.23-.53 2.62-.53t2.63.53 2.16 1.45q.91.91 1.44 2.14.53 1.22.53 2.61m-.55 10.24v42.19h-12.39v-42.19Z" transform="matrix(.7 0 0 .7 45.271 171.392)"/><path fill="url(#a)" d="m271.487 89.957-16.63 42.23h-11.12l-15.35-42.23h12.35l11.27 33.64 10.93-33.64Z" transform="matrix(.7 0 0 .7 45.278 171.399)"/><path fill="url(#a)" d="M286.047 112.147q2.26.52 4.53.81t4.57.29q2.41 0 4.48-.46 2.06-.45 3.58-1.53t2.4-2.87q.87-1.79.87-4.46 0-2.16-.58-3.95-.59-1.79-1.74-3.07t-2.83-2q-1.68-.71-3.91-.71-2.09 0-3.75.77t-2.93 2.07q-1.26 1.29-2.15 3.01-.9 1.72-1.48 3.58-.59 1.87-.85 3.77-.25 1.9-.25 3.58v.59q0 .29.04.58m30.45-8.33q0 2.59-.84 4.62t-2.28 3.57q-1.45 1.53-3.35 2.59t-4.06 1.74-4.44.97q-2.29.29-4.44.29-2.74 0-5.41-.38-2.67-.39-5.27-1.23.4 2.42 1.28 4.59.88 2.18 2.34 3.8 1.46 1.63 3.6 2.58t5.07.95q1.93 0 3.69-.58 1.75-.59 3.22-1.65 1.46-1.06 2.57-2.52 1.12-1.46 1.81-3.25l5.34 1.97q-1.2 2.89-3.31 4.99-2.1 2.1-4.75 3.47t-5.63 2.03-5.91.66q-4.82 0-8.92-1.63-4.09-1.62-7.05-4.55-2.96-2.92-4.65-6.98-1.68-4.06-1.68-8.89 0-4.82 1.68-8.88 1.69-4.06 4.65-6.98 2.96-2.93 7.05-4.56 4.1-1.62 8.92-1.62 2.34 0 4.79.33 2.45.32 4.76 1.04 2.3.71 4.35 1.84 2.05 1.14 3.56 2.8 1.52 1.66 2.42 3.86.89 2.19.89 5.01" transform="matrix(.7 0 0 .7 45.271 171.392)"/><rect width="587.265" height="768.4" x="-781.985" y="-889.773" fill="none" rx="0" ry="0" transform="matrix(.7 0 0 .7 388.32 413.09)"/><path fill="#3d9970" d="M214.333 41.724v136.199q0 6.51-2.324 12.089t-6.391 9.646-9.646 6.391-12.082 2.324H-34.125q-8.365 0-18.011-1.974-9.646-1.981-19.061-6.16-9.408-4.186-18.011-10.808-8.596-6.629-15.225-16.037-6.622-9.415-10.57-21.847-3.955-12.439-3.955-28.007V-40.085q0-8.372 1.974-18.018 1.98-9.646 6.16-19.054 4.186-9.415 10.927-18.018 6.74-8.596 16.149-15.218 9.415-6.629 21.735-10.577 12.32-3.955 27.888-3.955h245.672v60.431H-34.125q-11.851 0-18.13 6.279-6.272 6.272-6.272 18.592V123.54q0 11.62 6.39 18.011t18.012 6.391h188.034V72.174H-6.931V11.281h190.82q6.504 0 12.083 2.436 5.579 2.443 9.646 6.622 4.067 4.186 6.39 9.646 2.325 5.467 2.325 11.739"/><g transform="rotate(-72 240.533 -69.055)scale(1.76)"><linearGradient id="b" x1="0" x2="1" y1="0" y2="0" gradientUnits="objectBoundingBox"><stop offset="0%" stop-color="#0f3054"/><stop offset="49.8%" stop-color="#3b8dcb"/><stop offset="100%" stop-color="#0f3054"/></linearGradient><path fill="url(#b)" d="m180.918-160.252.92-1.87c.4-.81 8.28-16.88 15.07-26.61-7.19 5.87-12.85 15.81-12.92 15.94l-2.12 3.76.13-4.31c.01-.24.97-23.95 21.14-35.2 7.15-3.98 10.7-8.17 10-11.78l-.51-2.6 2.16 1.54c5.95 4.24 9.81 12.75 10.07 22.2.28 9.94-3.47 19-10.02 24.24-13.79 11-31.13 14.2-31.86 14.33Zm24.94-35.67-3.56 3.76c-5.78 6.12-14.64 23.18-17.57 29 5.06-1.22 18.19-4.98 28.78-13.44 6.04-4.83 9.5-13.25 9.24-22.52-.22-7.85-3.04-14.96-7.5-19.14-.6 3.88-4.38 7.83-11.08 11.57-13.78 7.69-18.1 21.51-19.45 28.73 3.33-4.93 9.5-12.91 16.4-15.9Z" transform="translate(-71.68 -55.27)"/></g><g transform="rotate(-72 264.55 -2.277)scale(1.76)"><linearGradient id="c" x1="0" x2="1" y1="0" y2="0" gradientUnits="objectBoundingBox"><stop offset="0%" stop-color="#0f3054"/><stop offset="49.8%" stop-color="#3b8dcb"/><stop offset="100%" stop-color="#0f3054"/></linearGradient><path fill="url(#c)" d="m178.658-176.782-1.9-.35c-.68-.12-16.85-3.14-29.7-13.6-6.7-5.46-10.7-14.2-10.7-23.37 0-7.7 2.86-14.44 7.83-18.5l1.52-1.24.1 1.97c.2 3.8 2.88 4.97 6.92 6.74 1.6.7 3.4 1.48 5.27 2.54 18.78 10.67 19.9 35.08 19.94 36.11l.16 4.26-2.03-3.74c-.07-.13-5.32-9.7-12.33-15.37 7.46 8.64 13.77 22.09 14.1 22.8Zm-34.54-53.06c-3.68 3.74-5.76 9.37-5.76 15.74 0 8.58 3.72 16.74 9.97 21.82 9.87 8.04 22.1 11.6 26.8 12.75-2.67-5.36-10.9-20.86-18.57-25.67l-5.44-3.41 6.22 1.6c7.8 2.01 14.62 10.89 18.08 16.16-1.23-7.5-5.29-22.55-18.41-30a50 50 0 0 0-5.08-2.45c-3.62-1.59-6.82-2.98-7.8-6.54" transform="translate(-26.29 -41.55)"/></g><g transform="matrix(.97 .49 -.49 .97 621.759 554.844)"><linearGradient id="d" x1="0" x2="1" y1="0" y2="0" gradientUnits="objectBoundingBox"><stop offset="0%" stop-color="#0f3054"/><stop offset="49.8%" stop-color="#3b8dcb"/><stop offset="100%" stop-color="#0f3054"/></linearGradient><path fill="url(#d)" d="M-377.607-123.809s-9.25 10.3-9.25 23c0 11.45 3.36 20.93 7.76 22.7.22-8.33 1.49-19.7 1.49-19.7s1.27 11.37 1.49 19.7c4.4-1.77 7.76-11.25 7.76-22.7 0-12.7-9.25-23-9.25-23" transform="translate(-50 -47.88)"/></g><g transform="matrix(.97 .49 -.49 .97 640.311 576.926)"><linearGradient id="e" x1="0" x2="1" y1="0" y2="0" gradientUnits="objectBoundingBox"><stop offset="0%" stop-color="#0f3054"/><stop offset="49.8%" stop-color="#3b8dcb"/><stop offset="100%" stop-color="#0f3054"/></linearGradient><path fill="url(#e)" d="M-359.037-97.839c-8.23 7.95-12.72 16.96-10.93 21.36 6.14-5.64 15.2-12.62 15.2-12.62s-7.3 8.8-13.14 14.76c4.33 1.93 13.5-2.24 21.72-10.2 9.14-8.82 10.12-22.63 10.12-22.63s-13.84.5-22.97 9.33" transform="translate(-74.39 -58.32)"/></g><g transform="matrix(.97 .49 -.49 .97 592.985 553.02)"><linearGradient id="f" x1="0" x2="1" y1="0" y2="0" gradientUnits="objectBoundingBox"><stop offset="0%" stop-color="#0f3054"/><stop offset="49.8%" stop-color="#3b8dcb"/><stop offset="100%" stop-color="#0f3054"/></linearGradient><path fill="url(#f)" d="M-419.147-107.169s.98 13.81 10.12 22.64c8.22 7.95 17.39 12.12 21.72 10.19-5.85-5.95-13.14-14.76-13.14-14.76s9.06 6.98 15.2 12.62c1.79-4.4-2.7-13.4-10.93-21.36-9.13-8.82-22.97-9.33-22.97-9.33" transform="translate(-25.61 -58.32)"/></g></g><path fill="transparent" stroke="transparent" stroke-width=".189" d="M13.447 12.5h101.106v103H13.447z"/></g></svg>