<svg xmlns="http://www.w3.org/2000/svg" xml:space="preserve" width="128" height="128" data-id="lg_KWFWqhNURw09rBSwkK" data-version="1" viewBox="0 0 128 128"><g data-padding="20"><g transform="translate(54.068 54.34)scale(.1764)"><rect width="296.021" height="142.38" x="-632.086" y="-557.366" fill="none" rx="0" ry="0" transform="matrix(.71 0 0 .71 390.84 376.869)"/><g transform="matrix(.71 0 0 .71 317.44 371.508)"><linearGradient id="a" x1="0" x2="1" y1="0" y2="0" gradientUnits="objectBoundingBox"><stop offset="0%" stop-color="#0f3054"/><stop offset="49.8%" stop-color="#3b8dcb"/><stop offset="100%" stop-color="#0f3054"/></linearGradient><path fill="url(#a)" d="M-177.235-49.316v-34.76h-14.71q.25-2.22 1.2-4.12.96-1.91 2.4-3.33 1.45-1.41 3.29-2.24 1.85-.83 3.88-.83h3.94v-47.99h14.64v47.99h33.16v-47.99h14.77v93.27h-14.77v-34.76h-33.16v34.76Z" transform="translate(-330.77 -390.23)"/></g><path fill="url(#a)" d="M-91.165-64.946v-33.16q0-3.26.92-6.09t2.49-4.95 3.73-3.35q2.15-1.24 4.55-1.24h32.67q2.4 0 4.52 1.24 2.12 1.23 3.72 3.35t2.52 4.95q.93 2.83.93 6.09v20.49h-41.35v17.78h45.16q-.25 2.15-1.2 4.09t-2.4 3.35q-1.44 1.42-3.29 2.25t-3.88.83h-37.4q-2.4 0-4.55-1.23-2.16-1.23-3.73-3.35-1.57-2.13-2.49-4.96t-.92-6.09m14.7-21.28h26.64v-16.98h-26.64Z" transform="matrix(.71 0 0 .71 82.594 94.452)"/><path fill="url(#a)" d="M-13.955-64.946v-82.25h14.7v87.36h13.11q-.37 2.46-1.39 4.43-1.01 1.97-2.46 3.32-1.44 1.35-3.26 2.06-1.81.71-3.78.71h-5.17q-2.4 0-4.55-1.23t-3.75-3.35q-1.6-2.13-2.53-4.96-.92-2.83-.92-6.09" transform="matrix(.71 0 0 .71 82.6 94.452)"/><path fill="url(#a)" d="m38.345-56.206.06 24.42q0 3.26-.9 6.13-.89 2.86-2.46 4.98-1.56 2.12-3.66 3.38-2.09 1.26-4.49 1.26h-3.2v-97.7h43.13q2.4 0 4.49 1.24 2.09 1.23 3.69 3.35t2.53 4.95q.92 2.83.92 6.09v38.27h12.98q-.25 2.15-1.2 4.09t-2.4 3.35q-1.44 1.42-3.29 2.25t-3.88.83h-32.42q-2.95 0-5.54-1.88-2.58-1.87-4.36-5.01m0-3.69h25.4v-43.31h-25.4Z" transform="matrix(.71 0 0 .71 82.594 94.452)"/><path fill="#3d9970" d="M300.125 18.158v230.926q0 2.242-.897 4.26 0 .56-.45 1.12c-1.456 2.58-36.543 65.58-98.31 78.246q-10.762 2.242-21.524 2.13-38.562 0-78.021-27.8a49.32 49.32 0 0 1-32.958 11.433q-3.7 0-7.51-.448a56.05 56.05 0 0 1-29.82-12.219 31.39 31.39 0 0 1-12.106-27.352c2.13-18.72 23.99-31.837 49.997-28.698a56.05 56.05 0 0 1 29.819 12.22c7.959 6.725 12.443 15.581 12.33 24.437q44.056 32.51 85.197 24.326c33.517-6.839 58.516-32.958 71.968-50.558h-36.21a25.783 25.783 0 0 1-25.894-25.895v-116.36a25.783 25.783 0 0 1 25.895-25.895h46.074V18.158c0-59.3-22.981-114.903-64.794-156.604A221.622 221.622 0 0 0-165.09 18.158v73.873h46.073a25.783 25.783 0 0 1 25.895 25.896v116.36a25.783 25.783 0 0 1-25.895 25.894H-176.3a11.21 11.21 0 0 1-11.21-11.21V18.158a244.154 244.154 0 0 1 416.339-172.41 242.14 242.14 0 0 1 71.296 172.41"/></g><path fill="transparent" stroke="transparent" stroke-width=".184" d="M19.121 12.5h89.758v103H19.12z"/></g></svg>