<svg xmlns="http://www.w3.org/2000/svg" xml:space="preserve" width="128" height="128" data-id="lg_KWFWqhNURw09rBSwkK" data-version="1" viewBox="0 0 128 128"><g data-padding="20"><g transform="translate(54.032 54.032)scale(.17797)"><path fill="#1c1c1c" d="M284.888-57.239a8.15 8.15 0 0 0-3.749-6.357l-211.9-122.25a8.15 8.15 0 0 0-8.15 0l-211.9 122.25a8.15 8.15 0 0 0-3.749 6.357V43.17a8.15 8.15 0 0 0 16.3 0v-85.9L57.34 70.063v225.592l-195.6-112.796V77.725a8.15 8.15 0 1 0-16.3 0v109.862a8.15 8.15 0 0 0 4.075 7.01l211.9 122.25a8.15 8.15 0 0 0 7.335 0l125.673-72.21a8.183 8.183 0 0 0-8.15-14.18l-112.959 65.2V70.063l60.473-34.882a8.183 8.183 0 1 0-8.15-14.18L65.164 55.882l-195.6-112.796 195.6-112.633 195.6 112.633-105.95 61.125a8.183 8.183 0 1 0 8.15 14.181l105.95-61.125V182.86l-41.402 23.961a8.15 8.15 0 0 0 4.075 15.16l4.075-1.142 45.477-26.243a8.15 8.15 0 0 0 4.075-7.009v-244.5Z"/><path fill="none" stroke="#fff" stroke-width="15.28" d="M271.078-49.659a7.64 7.64 0 0 0-3.514-5.959l-198.64-114.6a7.64 7.64 0 0 0-7.64 0l-198.64 114.6a7.64 7.64 0 0 0-3.514 5.96v94.124a7.64 7.64 0 0 0 15.28 0v-80.525L57.77 69.678v211.475l-183.36-105.736V76.861a7.64 7.64 0 1 0-15.28 0v102.986a7.64 7.64 0 0 0 3.82 6.57l198.64 114.6a7.64 7.64 0 0 0 6.876 0l117.808-67.69a7.67 7.67 0 0 0-7.64-13.294l-105.89 61.12V69.678l56.69-32.699a7.67 7.67 0 1 0-7.64-13.294l-56.69 32.7-183.36-105.738 183.36-105.585 183.36 105.585-99.32 57.3a7.67 7.67 0 1 0 7.64 13.294l99.32-57.3v211.475l-38.81 22.461a7.64 7.64 0 0 0 3.82 14.21l3.82-1.069 42.63-24.6a7.64 7.64 0 0 0 3.82-6.57v-229.2Z"/><rect width="304.314" height="111.87" x="-482.919" y="-386.697" fill="none" rx="0" ry="0" transform="translate(409.78 293.68)scale(1.04)"/><path fill="#fff" d="M-62.165-18.489H-78.69v-74.849h16.525Zm43.857 0h-16.37v-53.84q0-3.09 1.134-4.483 1.134-1.394 3.453-1.747h-23.067v-14.779H.07v14.78h-18.377Zm74.183 0h-46.8v-74.849H54.95v14.78H20.203l4.992-3.808V-60.9l-4.992-3.245h31.294v14.727H20.713l4.482-3.193v23.11l-4.992-3.86h35.672Zm27.29 0H67.15v-74.849h27.186l9.464 41.496 2.63 12.813h.21l2.672-12.813 9.318-41.496h27.29v74.85h-16.016v-37.836l1.601-24.19h-.52l-6.947 24.034-10.816 37.991h-13.23l-10.96-37.99-6.949-24.035h-.52l1.602 24.19Zm102.388 1.02q-8.6 0-15.465-2.695-6.874-2.704-10.733-8.372-3.868-5.657-3.556-14.466h15.953q.104 3.713 1.55 6.333 1.445 2.632 4.534 3.994t8.03 1.362q4.013 0 6.582-.82 2.58-.823 3.786-2.445 1.217-1.623 1.217-3.994 0-2.62-1.654-4.347-1.643-1.726-5.169-3.224-3.525-1.487-9.09-3.39-6.895-2.476-12.074-5.564-5.169-3.09-8.008-7.572-2.829-4.472-2.829-11.013 0-10.192 7.083-15.517 7.072-5.335 19.23-5.335 8.288 0 13.842 2.6 5.564 2.6 8.517 7.748 2.964 5.148 3.484 12.771h-15.652q-.104-2.985-1.268-5.044-1.155-2.06-3.37-3.14t-5.502-1.082q-5.002 0-7.623 1.622-2.62 1.622-2.62 5.117 0 2.631 1.206 4.461 1.206 1.82 4.191 3.422 2.985 1.591 8.29 3.546 4.94 1.8 9.504 3.526 4.556 1.726 8.154 4.066 3.61 2.35 5.69 5.897 2.09 3.557 2.09 9.06.051 11.22-7.676 16.857-7.717 5.637-20.644 5.637"/><rect width="89.723" height="22.6" x="-375.623" y="-342.062" fill="none" rx="0" ry="0" transform="translate(425.049 189.541)scale(1.04)"/><path fill="#fff" d="M42.16-148.274q-1.726 0-2.943-.686-1.217-.687-1.862-1.997-.645-1.3-.645-3.15 0-1.915.687-3.236.686-1.31 1.934-1.986t2.923-.676q1.622 0 2.735.613 1.102.614 1.674 1.81t.572 2.943q0 .22-.01.5-.02.29-.042.655h-7.3q.114 1.414.686 2.06.572.654 1.601.654.853 0 1.3-.374.437-.375.52-.988h3.1q-.094 1.175-.708 2.038-.624.874-1.695 1.342-1.07.478-2.527.478m-.957-7.03h2.923q-.042-1.092-.52-1.633-.49-.54-1.488-.54-1.175 0-1.716.831-.54.842-.55 2.382.082-.593.405-.822.322-.218.946-.218m12.303 7.05q-1.466 0-2.516-.426-1.06-.426-1.644-1.3-.582-.863-.644-2.204h3.15q.094.832.542 1.227.436.395 1.185.395.375 0 .718-.094.343-.083.561-.312.22-.218.22-.613 0-.323-.157-.53-.167-.198-.468-.344-.312-.135-.749-.26-.437-.114-.988-.28-.978-.292-1.82-.708-.853-.416-1.373-1.113-.52-.696-.52-1.83 0-1.695 1.248-2.517 1.238-.82 3.255-.82 1.186 0 2.132.321t1.57 1.144q.614.822.791 2.32l-3.13-.022q-.094-.665-.323-.998-.228-.322-.52-.437-.29-.104-.603-.104-.353 0-.634.115-.29.114-.458.332-.166.22-.166.552 0 .395.25.676t.76.488q.51.22 1.3.437.52.135 1.174.333.645.198 1.248.551.593.354.988.957.385.603.385 1.56 0 1.664-1.28 2.58-1.279.925-3.484.925m10.234-.04q-1.404 0-2.184-.718-.78-.708-.79-2.205l-.032-5.075q0-.396.23-.645.218-.25.623-.323l-.853-2.07v-.342l.593-3.36h2.631v10.816q0 .728.188 1.01.176.28.696.28t.874-.02q.343-.022.655-.074v2.548q-.374.136-1.113.156-.748.021-1.518.021m2.558-8.966h-6.77v-2.516h6.77Zm3.39 8.986q-.748 0-1.278-.55-.53-.542-.53-1.405 0-.853.53-1.394t1.28-.54 1.278.54q.53.541.53 1.394 0 .863-.53 1.404-.53.551-1.28.551m16.766-.156H75.907q.686-.863 1.32-1.674l1.238-1.58 1.155-1.499q.551-.728 1.081-1.414.988-1.29 1.592-2.09.603-.79.884-1.384.28-.582.28-1.217 0-.738-.416-1.29-.426-.54-1.528-.53-.687 0-1.196.323-.51.322-.718.988-.208.676 0 1.716h-2.995q-.27-2.049.312-3.328.572-1.269 1.79-1.862 1.205-.593 2.838-.593 1.643 0 2.745.53t1.654 1.467q.551.947.551 2.184 0 1.196-.385 2.163-.384.978-.946 1.78-.572.81-1.113 1.538l-.873 1.144q-.437.582-.874 1.154l-.874 1.144q.344-.353.78-.468.437-.104 1.217-.104h3.027Zm7.477.23q-1.664 0-2.922-.812-1.269-.8-1.976-2.548-.707-1.737-.707-4.524 0-2.704.707-4.42t1.976-2.538q1.258-.81 2.922-.81 1.675 0 2.933.81 1.248.822 1.955 2.538.697 1.716.697 4.42 0 2.787-.697 4.524-.707 1.747-1.955 2.548-1.258.81-2.933.81m0-2.985q.707 0 1.217-.458.5-.447.77-1.518t.27-2.902q0-1.799-.27-2.85-.27-1.05-.77-1.507-.51-.447-1.217-.447t-1.217.447q-.51.457-.78 1.508t-.27 2.85q0 1.83.27 2.901t.78 1.518q.51.458 1.217.458m17.087 2.756h-10.545q.686-.863 1.32-1.674l1.238-1.58 1.155-1.499q.55-.728 1.081-1.414.988-1.29 1.591-2.09.604-.79.884-1.384.281-.582.281-1.217 0-.738-.416-1.29-.426-.54-1.529-.53-.686 0-1.196.323-.51.322-.717.988-.208.676 0 1.716h-2.995q-.27-2.049.312-3.328.572-1.269 1.788-1.862 1.207-.593 2.84-.593 1.643 0 2.745.53t1.654 1.467q.551.947.551 2.184 0 1.196-.385 2.163-.385.978-.946 1.78-.572.81-1.113 1.538l-.874 1.144q-.436.582-.873 1.154l-.874 1.144q.343-.353.78-.468.437-.104 1.217-.104h3.026Zm11.836 0h-2.944v-2.704h-7.488l5.325-12.418h5.138l-.052.042.01 9.734h1.935v2.642h-1.924Zm-5.73-6.5-.708 1.58q.208-.238.458-.332.24-.094.644-.094h3.328q-.572 0-.748-.374-.188-.374-.188-1.03v-2.932l.052-3.464-1.476 3.568Zm57.703 313.428q.183-.704.183-1.46c0-4.595-5.01-8.3-11.223-8.3q-3.393.025-6.055 1.304-4.333-1.174-9.083-1.775a17.23 17.23 0 0 0-12.92-5.14c-6.864 0-12.71 3.313-14.642 7.855-10.83 3.68-19.183 10.257-22.785 18.27h35.94c-2.61 2.088-9.475 5.637-26.44 5.637-10.44 0-19.13 3.498-25.839 10.44a41.8 41.8 0 0 0-7.125 10.284c-2.4-12.345-3.367-29.91 4.985-33.33 24.09-9.813 40.768-28.762 42.726-48.024h72.062c-6.473-14.355-21.01-26.309-39.96-33.434q1.045-1.853 1.071-3.915c0-6.656-8.926-12.058-19.94-12.058q-3.08 0-5.899.522c-3.523-5.977-12.24-9.553-21.82-8.352-11.823 1.514-20.54 9.735-19.444 18.374l.183.94a96.6 96.6 0 0 0-35.888 15.268l-.104-.026a7.05 7.05 0 0 0-5.69-2.636q-2.27.026-3.967 1.044a91.4 91.4 0 0 0-32.704 2.506q-2.4-1.044-5.272-1.044c-5.533 0-10.127 3.262-11.04 7.57a54.8 54.8 0 0 0-12.189 8.977 26.1 26.1 0 0 0-11.197-2.453c-11.014 0-19.914 6.316-19.914 14.12q0 2.766 1.41 5.22c-7.57 4.88-13.285 11.014-16.417 17.957h40.09c.39 2.35 1.748 6.603 6.63 10.518 6.967 5.664 18.608 8.51 34.607 8.51 6.838 0 12.215 2.113 16.443 6.471 10.858 11.223 10.284 33.095 10.257 33.304h.053l-4.96 73.21c0 2.61 10.362 4.75 23.125 4.75s23.1-2.114 23.1-4.75l-3.499-56.532c.94-7.36 3.393-17.46 9.683-23.96 4.23-4.359 9.605-6.473 16.443-6.473 16 0 27.666-2.87 34.61-8.508a17.5 17.5 0 0 0 6.55-10.127h34.583a29.75 29.75 0 0 0-8.718-10.753m-135.51-31.112a62.6 62.6 0 0 0-13.755-7.803h12.58q.366 4.097 1.175 7.777m16.104 34.191q-2.219 6.317-2.636 14.408a44.4 44.4 0 0 0-9.814-16.652c-6.708-6.943-15.399-10.44-25.839-10.44-14.407 0-21.559-2.532-25.004-4.646q-1.2-.73-1.905-1.41h55.854a35.5 35.5 0 0 0 13.18 11.015q-2.349 3.445-3.836 7.725m11.484-15.45a26.1 26.1 0 0 1-10.075-6.16q-7.256-7.256-8.56-20.358h45.074q-1.253-2.767-3.028-5.35h11.537a31.3 31.3 0 0 1-7.047 13.258 58.7 58.7 0 0 1-22.709 15.816q-2.74 1.15-5.194 2.793"/><g stroke="#fff" stroke-width="2" transform="matrix(.88 0 0 .88 409.07 221.87)"><path d="M-541.449-390.9h301.096"/>undefined
        undefined</g><g stroke="#fff" stroke-width="2" transform="translate(399.17 408.75)scale(1.04)"><path d="M-481.31-330.762h301.096"/>undefined
        undefined</g><rect width="245.083" height="80.23" x="-453.304" y="-370.877" fill="none" rx="0" ry="0" transform="translate(427.58 427.57)scale(1.04)"/><g transform="translate(312.65 424.284)scale(1.04)"><linearGradient id="a" x1="0" x2="1" y1="0" y2="0" gradientUnits="objectBoundingBox"><stop offset="0%" stop-color="#0f3054"/><stop offset="49.8%" stop-color="#3b8dcb"/><stop offset="100%" stop-color="#0f3054"/></linearGradient><path fill="url(#a)" d="M-12.242 66.898v49.92h-13.76v-49.92Z" transform="translate(-311.64 -422.62)"/></g><path fill="url(#a)" d="M22.148 73.278v43.54H8.388v-43.54h-13.59v-6.38h40.94v6.38Zm56.47 37.16v6.38h-35.84v-49.92h35.84v6.38h-22.08v15.43h17.06v6.34h-17.06v15.39Zm29.89 6.38-11.41-37.23-3.88 37.23h-8.49l8.49-49.92h12.58l11.69 38.1 11.82-38.1h12.58l7.08 49.92h-14.01l-4.13-36.26-9.74 36.26Z" transform="translate(-11.456 -15.241)scale(1.04)"/><path fill="url(#a)" d="M198.958 101.568q0 3.22-.82 5.68-.81 2.47-2.29 4.27-1.47 1.8-3.48 3.01-2.01 1.22-4.38 1.95-2.38.72-5.03 1.04-2.65.31-5.39.31-3.61 0-6.66-.54t-5.74-1.7q-2.68-1.16-5.16-3-2.48-1.83-4.94-4.47l7.07-7.18q.97 2.4 2.67 4.42 1.7 2.03 3.73 3.49 2.02 1.45 4.21 2.29 2.18.83 4.12.83 2.29 0 4.3-.33t3.5-1.09q1.49-.77 2.34-2.03.85-1.27.85-3.17 0-1.46-.66-2.5-.65-1.04-1.71-1.78-1.06-.75-2.41-1.27t-2.76-.88q-1.4-.37-2.75-.66-1.35-.3-2.39-.61-2.05-.59-4.27-1.26-2.22-.68-4.37-1.55-2.15-.86-4.07-1.99t-3.38-2.67-2.32-3.57q-.87-2.03-.87-4.66 0-3.16.78-5.6.78-2.45 2.2-4.25t3.36-3.03q1.95-1.23 4.27-1.98 2.32-.74 4.94-1.07t5.35-.33q3.75 0 6.82.69 3.06.69 5.67 1.98 2.6 1.28 4.76 3.06 2.17 1.79 4.08 3.97l-7.08 7.18q-.83-2.5-2.3-4.51-1.48-2.01-3.28-3.45-1.8-1.43-3.78-2.21-1.97-.78-3.81-.78-2.39 0-4.4.32-2.01.33-3.45 1.08-1.44.74-2.24 2.01t-.8 3.14q0 1.49.59 2.53t1.58 1.77q.99.72 2.24 1.19 1.24.47 2.58.82 1.33.34 2.63.6t2.38.58l4.37 1.24q2.28.66 4.5 1.55 2.22.88 4.23 2.02 2.01 1.15 3.54 2.73 1.52 1.57 2.43 3.64.9 2.06.9 4.73" transform="translate(-11.446 -15.241)scale(1.04)"/><rect width="536.324" height="536.324" x="-598.924" y="-598.924" fill="#3d9970" opacity=".27" rx="0" ry="0" transform="translate(400 400)scale(1.04)"/></g><path fill="transparent" stroke="transparent" stroke-width=".185" d="M12.5 12.5h103v103h-103z"/></g></svg>