<svg xmlns="http://www.w3.org/2000/svg" xml:space="preserve" width="128" height="128" data-id="lg_KWFWqhNURw09rBSwkK" data-version="1" viewBox="0 0 128 128"><g data-padding="20"><g transform="translate(54.086 54.046)scale(.17706)"><rect width="270.092" height="65.54" x="-600.243" y="-497.143" fill="none" rx="0" ry="0" transform="matrix(.74 0 0 .74 321 486.953)"/><g transform="matrix(.74 0 0 .74 239.318 484.874)"><linearGradient id="a" x1="0" x2="1" y1="0" y2="0" gradientUnits="objectBoundingBox"><stop offset="0%" stop-color="#0f3054"/><stop offset="49.8%" stop-color="#3b8dcb"/><stop offset="100%" stop-color="#0f3054"/></linearGradient><path fill="url(#a)" d="M-148.867 212.527h-5.51v-40.49q2.37-.29 5.24-.43 2.88-.15 5.95-.15 5.05 0 8.58 1.6 3.54 1.59 5.4 4.38 1.85 2.78 1.85 6.38 0 4.35-2.14 7.36-2.15 3.02-5.98 4.61-3.82 1.6-8.87 1.6-2.44 0-4.52-.18Zm5.22-19.72q5.16 0 8-2.32t2.84-6.21q0-3.77-2.72-5.97-2.73-2.21-7.78-2.21-1.56 0-2.95.06-1.4.06-2.61.17v16.19q.92.11 2.26.2 1.33.09 2.96.09" transform="translate(-324.33 -656.37)"/></g><path fill="url(#a)" d="M-110.587 213.217q-3.77 0-6.85-1.91-3.07-1.92-4.9-5.42-1.83-3.51-1.83-8.27 0-4.52 1.83-8.12t5.05-5.71q3.22-2.12 7.39-2.12 2.61 0 4.73.9t3.68 2.23v-2.43h4.76v22.85q0 2.2 1.07 2.87t2.35.67l-1.1 4.06q-5.57 0-6.73-4.53-1.33 1.86-3.63 3.4-2.29 1.53-5.82 1.53m1.16-4.64q2.2 0 4.17-1.07t3.31-2.7v-16.18q-1.57-1.1-3.45-1.77-1.89-.67-3.98-.67-2.78 0-4.9 1.43-2.11 1.42-3.33 3.94t-1.22 5.89q0 3.24 1.22 5.77 1.22 2.52 3.36 3.94 2.15 1.42 4.82 1.42" transform="matrix(.74 0 0 .74 -.686 -.84)"/><path fill="url(#a)" d="M-86.757 225.977q-1.74 0-3.04-.35-1.31-.34-2.06-.81l1.16-4.35q.7.41 1.74.7t2.32.29q2.44 0 4.35-1.57 1.91-1.56 3.65-6.15l1.34-3.48h-2.79l-11.77-26.5 4.64-2.09 11.25 25.11 8.76-24.88 4.81 1.86-11.07 30.27q-1.69 4.64-3.66 7.25t-4.35 3.66q-2.38 1.04-5.28 1.04m34.8-13.45h-5.22v-30.16h5.05v5.04q1.62-2.43 4.12-4.09 2.49-1.65 5.68-1.65 3.6 0 5.89 1.74t3.22 4.64q1.8-2.67 4.26-4.52 2.47-1.86 6.12-1.86 4.93 0 7.34 3.1 2.4 3.11 2.4 8.09v19.67h-5.22v-19.26q0-3.13-1.45-5.07-1.45-1.95-4-1.95-2.61 0-4.84 1.95-2.23 1.94-3.92 4.55v19.78h-5.22v-19.26q0-3.13-1.45-5.07-1.45-1.95-4-1.95t-4.81 1.89q-2.26 1.88-3.95 4.43Z" transform="matrix(.74 0 0 .74 -.686 -.833)"/><path fill="url(#a)" d="M7.963 213.217q-6.5 0-10.3-4.14-3.8-4.15-3.8-11.63 0-4.53 1.71-8.09 1.72-3.57 4.79-5.63t7.13-2.06q4.35 0 7.22 1.89 2.88 1.88 4.33 5.07t1.45 7.02q0 2.03-.18 3.94H-.797q.52 4.24 2.96 6.61 2.43 2.38 6.44 2.38 2.61 0 4.69-.55 2.09-.55 4.01-1.42l1.21 4.47q-2.08.92-4.69 1.53t-5.86.61m-8.82-17.86h16.53q0-4.41-2.2-6.79-2.21-2.38-6.09-2.38-3.37 0-5.57 2.35t-2.67 6.82" transform="matrix(.74 0 0 .74 -.686 -.84)"/><path fill="url(#a)" d="M32.673 212.527h-5.22v-30.16h5.04v5.04q1.63-2.43 4.15-4.09 2.52-1.65 6-1.65 5.11 0 7.63 3.07 2.52 3.08 2.52 8.12v19.67h-5.22v-19.09q0-3.24-1.54-5.22-1.53-1.97-4.26-1.97-2.67 0-5.04 1.89-2.38 1.88-4.06 4.43Zm39.67.69q-4.35 0-6.88-2.87-2.52-2.87-2.52-8.21v-14.15h-5.22v-4.52h5.34l1.1-9.51h4v9.51h8.35v4.52h-8.35v14.56q0 3.36 1.42 4.7 1.42 1.33 3.4 1.33 1.45 0 2.75-.46 1.31-.47 2.41-1.1l1.45 4.17q-1.16.7-3.13 1.37-1.98.66-4.12.66" transform="matrix(.74 0 0 .74 -.686 -.833)"/><path fill="#3d9970" d="M167.764-55.673h-251.27a36.016 36.016 0 0 0-35.883 35.883v143.665c0 19.758 16.125 35.883 35.883 35.883h251.27c19.757 0 35.883-16.125 35.883-35.883V-19.79c0-19.713-16.126-35.883-35.883-35.883m14.353 179.504a14.62 14.62 0 0 1-14.353 14.353h-251.27a14.62 14.62 0 0 1-14.353-14.353v-75.4h279.976ZM-97.859-5.216v-14.53A14.62 14.62 0 0 1-83.506-34.1h251.27a14.62 14.62 0 0 1 14.353 14.353v14.53Zm82.575-71.942H92.41v-33.225h53.825L38.54-218.076-69.153-110.383h53.87ZM11.03 220.094a36.016 36.016 0 0 0 49.04-13.157l14.84-25.694H-56.216Z"/><path fill="#3d9970" d="M-83.55-77.203h10.41l-25.783-14.885a36.016 36.016 0 0 0-49.04 13.158l-71.766 124.35a36.016 36.016 0 0 0 13.113 49.04l66.361 38.275a57.6 57.6 0 0 1-.797-8.95v-143.53c0-31.674 25.782-57.457 57.457-57.457"/><g transform="translate(587.67 593.95)scale(1.93)"><linearGradient id="b" x1="0" x2="1" y1="0" y2="0" gradientUnits="objectBoundingBox"><stop offset="0%" stop-color="#0f3054"/><stop offset="49.8%" stop-color="#3b8dcb"/><stop offset="100%" stop-color="#0f3054"/></linearGradient><path fill="url(#b)" d="M-84.066-115.05c-1.8-.1-5.6 2-6.7 2.5-3.7 1.9-8.8 5-12.2 7.4-.2.2-.5.4-.8.5-1.5 1-3.1 1.7-4.9 2.1-9.8 2.2-24.1 2.4-24.1 2.4h-.8c-.6 0-1.2-.4-1.3-1-.1-.7.4-1.3 1.1-1.4l21.2-2.1c2.3-.3 4.2-2.5 3.9-5.1s-2.5-4.4-4.9-4.2l-18.9-.2c-1.3 0-3.3-.3-4.6-.7-12.2-3.7-19-.2-22.7 1.4-.8-1.4-2.4-2.3-4.1-2.2l-7.8.6c-2.7.2-4.7 2.5-4.6 5.2l1.3 18.8c.2 2.7 2.5 4.7 5.2 4.6l8.1-.6c1.7-.1 3.1-1.2 3.7-2.7l35.7 1.6c4 .4 7.7-.1 11.2-2l1-.6 27-16.4a4.6 4.6 0 0 0 2.3-3.8c.3-1.8-.7-3.9-3.3-4.1m-82.7 24.1a2.8 2.8 0 1 1 0-5.6c1.5 0 2.8 1.2 2.8 2.8s-1.2 2.8-2.8 2.8m62.2-21.2c2.8-1.6 8.4-4.4 11.5-5.7 1.5-.6 3-.6 4.4.4-1.1.4-2.1.9-3.1 1.4-3.2 1.7-8.8 4.8-11.6 6.8-.3.2-.6.4-.8.6v-1.6c-.1-.7-.2-1.3-.4-1.9 0 .1 0 0 0 0m-3.7-4.7c1.9-1 6.1-2.4 7.9-3.2 1.5-.6 3-.6 4.4.4-2.2 1-6.4 2.6-8.4 3.7l-1.4.8c-.1.1-.2.2-.4.3-.6-.8-1.3-1.5-2.1-2m-13.3-52.7c-13.6 0-24.5 11-24.5 24.5 0 13.6 11 24.5 24.5 24.5 13.6 0 24.5-11 24.5-24.5.1-13.6-10.9-24.5-24.5-24.5m8.6 36.9c-.7.3-1.5.6-2.3.8-3 .8-6 .9-9-.1-3.6-1.2-6-3.6-7.4-7-.3-.7-.5-1.4-.7-2.1h-2.8a.9.9 0 0 1-.9-.9v-1.9c0-.5.4-.9.9-.9h2.3v-1.5h-2.3a.9.9 0 0 1-.9-.9v-1.9c0-.5.4-.9.9-.9h3l.1-.3c.8-2.5 2.2-4.7 4.3-6.3 1.7-1.3 3.6-2 5.7-2.3a16 16 0 0 1 9.1 1.2c.7.4.8.9.5 1.6-.3.8-.6 1.5-1 2.2-.3.6-.7.8-1.4.7-.9-.2-1.9-.5-2.8-.7-2-.4-4-.4-5.9.3-1.7.7-2.7 1.9-3.4 3.5v.1h5.8c.5 0 .9.4.9.9v2c0 .5-.4.9-.9.9h-6.6v1.5h6.6c.5 0 .9.4.9.9v1.9c0 .5-.4.9-.9.9h-6c.7 2.1 1.9 3.7 4.1 4.4 1.8.6 3.6.5 5.4.2.9-.2 1.8-.5 2.8-.7.7-.2 1.1 0 1.4.7s.7 1.5 1 2.3c.4.5.2 1.1-.5 1.4" transform="translate(-49.87 -50.05)"/></g></g><path fill="transparent" stroke="transparent" stroke-width=".184" d="M12.5 13.602h103v100.796h-103z"/></g></svg>