<svg xmlns="http://www.w3.org/2000/svg" xml:space="preserve" width="128" height="128" data-id="lg_KWFWqhNURw09rBSwkK" data-version="1" viewBox="0 0 128 128"><g data-padding="20"><g transform="translate(53.96 54.553)scale(.17707)"><rect width="251.57" height="85.88" x="-612.049" y="-533.99" fill="none" rx="0" ry="0" transform="matrix(.7 0 0 .7 392.96 606.7)"/><g transform="matrix(.7 0 0 .7 326.761 604.551)"><linearGradient id="a" x1="0" x2="1" y1="0" y2="0" gradientUnits="objectBoundingBox"><stop offset="0%" stop-color="#0f3054"/><stop offset="49.8%" stop-color="#3b8dcb"/><stop offset="100%" stop-color="#0f3054"/></linearGradient><path fill="url(#a)" d="m-131.564 149.62-6.76 3.19-6.62-14.44q-2.5-5.4-6.3-7.68t-9.73-2.28h-1.14v23.49h-7.22V98.85q4.03-.38 7.71-.57 3.69-.19 7.87-.19 9.73 0 14.63 3.95t4.9 10.19q0 5.54-3.31 8.93-3.3 3.38-9.53 5.05 2.05.91 3.64 2.17 1.6 1.25 3.08 3.34t3 5.43Zm-30.55-45.15v17.86h8.36q5.47 0 8.89-2.43t3.42-6.99q0-3.8-3.19-6.27t-9.12-2.47q-2.59 0-4.64.08-2.05.07-3.72.22" transform="translate(-335.81 -616.5)"/></g><path fill="url(#a)" d="M-107.394 152.81q-8.51 0-13.49-5.43-4.98-5.44-4.98-15.24 0-5.93 2.24-10.6 2.24-4.68 6.27-7.38 4.03-2.69 9.35-2.69 5.7 0 9.46 2.47t5.66 6.65 1.9 9.19q0 2.66-.22 5.17h-27.67q.69 5.55 3.88 8.66 3.19 3.12 8.43 3.12 3.42 0 6.16-.72t5.24-1.86l1.6 5.85q-2.74 1.21-6.16 2.01t-7.67.8m-11.55-23.41h21.66q0-5.77-2.89-8.89t-7.98-3.12q-4.41 0-7.3 3.08t-3.49 8.93m50.92 23.41q-5.7 0-9.01-3.76t-3.31-10.76v-18.54h-6.84v-5.93h7l1.44-12.46h5.24v12.46h10.95v5.93h-10.95v19.08q0 4.4 1.87 6.15 1.86 1.75 4.44 1.75 1.9 0 3.61-.61t3.16-1.44l1.9 5.47q-1.52.91-4.11 1.79-2.58.87-5.39.87m28.88 0q-3.42 0-6.46-1.44-3.04-1.45-4.94-4.68t-1.9-8.62v-25.69h6.84v24.77q0 4.64 1.97 7.11 1.98 2.47 5.78 2.47 3.11 0 6.04-1.25 2.93-1.26 5.21-3.39v-29.71h6.84v29.26q0 3.27 1.4 4.29 1.41 1.03 3.08 1.03l-1.44 5.32q-7.07 0-8.74-5.63-2.66 2.74-6.16 4.45t-7.52 1.71" transform="matrix(.7 0 0 .7 91.694 173.001)"/><path fill="url(#a)" d="M.676 151.9h-6.84v-39.52h6.61v8.59q.99-2.51 2.66-4.68 1.67-2.16 4.18-3.49t5.85-1.33q1.14 0 2.28.11t1.9.34l-2.05 7.07q-1.44-.61-3.42-.61-2.81 0-5.36 1.6-2.54 1.59-4.18 4.94-1.63 3.34-1.63 8.51Zm30.32 0h-6.84v-39.52h6.62v6.61q2.12-3.19 5.43-5.36 3.31-2.16 7.87-2.16 6.68 0 9.99 4.02 3.31 4.03 3.31 10.64v25.77h-6.84v-25.01q0-4.25-2.02-6.84-2.01-2.58-5.58-2.58-3.5 0-6.62 2.47-3.11 2.47-5.32 5.81Z" transform="matrix(.7 0 0 .7 91.694 172.994)"/><path fill="#3d9970" d="M151.729 23.617c-65.296-6.413-83.952-43.725-85.118-45.474-1.749-4.081-5.83-6.413-9.911-6.413s-8.162 2.332-10.494 6.413c-.583 1.749-19.822 39.061-85.118 45.474-5.83.583-9.911 5.247-9.911 11.077v67.045c0 80.454 96.195 130.592 100.276 132.924 1.749.583 3.498 1.166 5.247 1.166s3.498-.583 5.247-1.166c4.081-2.332 100.276-52.47 100.276-132.924V34.694c0-5.83-4.664-10.494-10.494-11.077m-46.057 69.377-50.721 50.721c-2.915 2.915-6.996 4.664-10.494 4.664s-7.579-1.749-10.494-4.664L7.728 117.48c-5.83-5.83-5.83-15.741 0-21.571s15.741-5.83 21.571 0L45.04 111.65l39.644-39.644c5.83-5.83 15.741-5.83 21.571 0 5.83 5.247 5.83 15.158-.583 20.988"/><path fill="#3d9970" d="M232.766-129.712H190.79v35.563h40.227v388.861h-348.634V-94.149h37.895v-35.563h-39.644a33.814 33.814 0 0 0-33.814 33.814v392.359c0 18.656 15.158 33.814 33.814 33.814h352.132c18.656 0 33.814-15.158 33.814-33.814V-95.898c0-18.656-15.158-33.814-33.814-33.814"/><path fill="#3d9970" d="M-39.495-81.906h190.058c7.579 0 13.409-5.83 13.409-13.409v-54.219c0-7.579-5.83-13.409-13.409-13.409h-31.482c-1.749-33.814-29.15-60.632-63.547-60.632s-61.798 26.818-63.547 60.632h-31.482c-7.579 0-13.409 5.83-13.409 13.409v54.219c0 7.579 5.83 13.409 13.409 13.409m95.029-102.025c13.409 0 24.486 11.077 24.486 24.486s-11.077 24.486-24.486 24.486-24.486-11.077-24.486-24.486c0-13.992 11.077-24.486 24.486-24.486"/></g><path fill="transparent" stroke="transparent" stroke-width=".186" d="M24.957 12.5h78.086v103H24.957z"/></g></svg>