<svg xmlns="http://www.w3.org/2000/svg" xml:space="preserve" width="128" height="128" data-id="lg_KWFWqhNURw09rBSwkK" data-version="1" viewBox="0 0 128 128"><g data-padding="20"><g transform="translate(53.988 53.57)scale(.17859)"><rect width="541.81" height="121.794" x="-752.932" y="-535.823" fill="none" rx="0" ry="0" transform="matrix(.71 0 0 .71 400.34 566.123)"/><path fill="#2ecc40" d="M-75.251 236.174q0 3.472-.88 6.127-.881 2.656-2.464 4.594-1.59 1.945-3.756 3.252-2.173 1.313-4.73 2.094-2.562.788-5.416 1.122-2.861.334-5.815.334-3.884 0-7.171-.575-3.287-.583-6.184-1.832t-5.567-3.23-5.325-4.822l7.619-7.739q1.05 2.578 2.882 4.765t4.012 3.755q2.187 1.57 4.544 2.471 2.35.895 4.445.895 2.47 0 4.636-.355t3.77-1.179q1.612-.823 2.528-2.187t.915-3.415q0-1.569-.71-2.69t-1.853-1.925q-1.143-.802-2.598-1.363t-2.968-.958q-1.512-.39-2.975-.71-1.455-.313-2.577-.654-2.201-.63-4.594-1.363-2.393-.724-4.707-1.66t-4.395-2.152q-2.073-1.215-3.643-2.876t-2.5-3.848q-.936-2.187-.936-5.027 0-3.4.845-6.035.838-2.634 2.37-4.572 1.535-1.946 3.622-3.273 2.095-1.328 4.6-2.13 2.5-.803 5.326-1.158 2.819-.355 5.772-.355 4.033 0 7.342.746 3.308.752 6.106 2.13 2.804 1.384 5.14 3.308t4.388 4.282l-7.618 7.732q-.902-2.69-2.485-4.857-1.59-2.165-3.536-3.72-1.938-1.548-4.068-2.393-2.13-.838-4.111-.838-2.577 0-4.75.355-2.166.355-3.713 1.158-1.555.802-2.414 2.165t-.86 3.387q0 1.604.64 2.726.63 1.122 1.696 1.903 1.065.788 2.414 1.292 1.342.504 2.784.873 1.434.377 2.84.66 1.398.278 2.556.611 2.243.64 4.707 1.35 2.47.71 4.863 1.66 2.386.952 4.559 2.188 2.165 1.235 3.805 2.932 1.647 1.704 2.62 3.926t.973 5.098m52.078-8.3q0 4.367-1.065 9.117-1.065 4.742-2.967 9.3-1.91 4.56-4.56 8.577-2.654 4.02-5.828 6.93l-4.75-2.577q1.009-1.868 1.91-4.182.895-2.322 1.626-4.913.724-2.599 1.307-5.368.575-2.762.972-5.474.39-2.705.597-5.268.206-2.556.206-4.764 0-1.456-.114-3.117t-.47-3.323q-.354-1.669-.95-3.195-.596-1.534-1.59-2.69-.987-1.158-2.393-1.868-1.4-.71-3.302-.71-1.867 0-3.33.837-1.455.838-2.577 2.201-1.122 1.37-1.924 3.124t-1.306 3.607q-.504 1.846-.732 3.643-.22 1.796-.22 3.216v21.634H-67.3v-59.044h12.624v22.237q2.435-3.55 5.964-5.474 3.528-1.924 7.824-1.924 4.487 0 7.81 1.455 3.33 1.456 5.53 4.055 2.209 2.598 3.288 6.162 1.086 3.572 1.086 7.796m21.606-28.847q0 1.42-.54 2.69-.547 1.272-1.477 2.202-.937.937-2.208 1.477-1.27.54-2.69.54t-2.67-.54-2.187-1.477q-.93-.93-1.477-2.2-.54-1.272-.54-2.692t.54-2.677q.547-1.25 1.477-2.18.937-.937 2.187-1.476 1.25-.547 2.67-.547t2.69.547q1.27.54 2.208 1.476.93.93 1.477 2.18.54 1.257.54 2.677m-.561 10.458v43.126h-12.667v-43.126Zm56.459 21.457q0 4.707-1.42 8.818t-4.111 7.156q-2.69 3.046-6.575 4.8-3.883 1.76-8.818 1.76-3.777 0-6.93-1.476-3.16-1.477-5.403-4.544v25.077H8.444v-63.076h4.863l5.602 9.38q.824-2.35 2.258-4.282 1.44-1.925 3.33-3.288 1.888-1.363 4.146-2.108t4.764-.746q4.935 0 8.818 1.754t6.575 4.8q2.69 3.045 4.11 7.156t1.42 8.818m-12.816 0q0-1.64-.17-3.494-.163-1.846-.575-3.678t-1.143-3.514q-.724-1.683-1.846-2.968-1.122-1.292-2.712-2.059t-3.678-.767q-2.173 0-3.756.753-1.59.745-2.727 2.03-1.143 1.293-1.874 2.954-.724 1.661-1.136 3.493t-.582 3.7q-.163 1.867-.163 3.55 0 1.497.22 3.308.227 1.81.71 3.642.49 1.832 1.27 3.55.789 1.718 1.925 3.067 1.143 1.342 2.655 2.145t3.458.802q2.13 0 3.699-.76 1.569-.767 2.69-2.059 1.123-1.292 1.847-2.968.73-1.682 1.143-3.514t.575-3.7q.17-1.867.17-3.514m66.805.002q0 4.707-1.42 8.818t-4.11 7.156q-2.691 3.046-6.575 4.8-3.89 1.76-8.818 1.76-3.777 0-6.937-1.476-3.152-1.477-5.396-4.544v25.077h-12.63v-63.076h4.855l5.61 9.38q.823-2.35 2.257-4.282 1.442-1.925 3.33-3.288 1.882-1.363 4.147-2.108 2.257-.746 4.764-.746 4.927 0 8.818 1.754 3.884 1.753 6.574 4.8 2.69 3.045 4.11 7.156t1.42 8.818m-12.814 0q0-1.64-.17-3.494-.17-1.846-.583-3.678-.404-1.83-1.136-3.514t-1.853-2.968q-1.114-1.292-2.705-2.059t-3.678-.767q-2.172 0-3.756.753-1.59.745-2.733 2.03-1.136 1.293-1.867 2.954-.725 1.661-1.136 3.493-.412 1.832-.583 3.7-.163 1.867-.163 3.55 0 1.497.22 3.308.227 1.81.71 3.642t1.27 3.55 1.925 3.067q1.143 1.342 2.656 2.145 1.512.802 3.457.802 2.13 0 3.7-.76 1.568-.767 2.683-2.059 1.122-1.292 1.853-2.968.732-1.682 1.136-3.514.412-1.832.582-3.7t.17-3.514m34.194-31.913q0 1.42-.54 2.69t-1.476 2.202q-.937.937-2.201 1.477-1.27.54-2.69.54t-2.678-.54q-1.25-.54-2.186-1.477-.93-.93-1.47-2.2-.547-1.272-.547-2.692t.547-2.677q.54-1.25 1.47-2.18.937-.937 2.186-1.476 1.257-.547 2.677-.547t2.69.547q1.265.54 2.202 1.476.937.93 1.477 2.18.54 1.257.54 2.677m-.56 10.458v43.126H116.47v-43.126Zm54.705 18.39q0 4.366-1.065 9.116-1.065 4.742-2.968 9.3-1.91 4.56-4.558 8.577-2.655 4.02-5.83 6.93l-4.75-2.577q1.009-1.868 1.91-4.182.895-2.322 1.627-4.913.724-2.599 1.306-5.368.575-2.762.973-5.474.39-2.705.596-5.268.206-2.556.206-4.764 0-1.456-.113-3.117t-.47-3.323q-.354-1.669-.95-3.195-.597-1.534-1.59-2.69-.988-1.158-2.393-1.868-1.4-.71-3.302-.71-1.867 0-3.33.837-1.455.838-2.577 2.201-1.122 1.37-1.924 3.124-.803 1.754-1.307 3.607-.504 1.846-.731 3.643-.22 1.796-.22 3.216v21.634h-12.666v-43.16h4.856l5.794 10.052q1.043-2.506 2.612-4.558 1.57-2.059 3.55-3.514 1.98-1.456 4.388-2.244 2.414-.78 5.212-.78 4.487 0 7.81 1.454 3.33 1.456 5.53 4.055 2.209 2.598 3.288 6.162 1.086 3.572 1.086 7.796m51.786-18.417v37.963q0 5.155-1.526 9.713-1.534 4.566-4.452 7.98-2.91 3.423-7.157 5.418-4.238 2.002-9.656 2.002-2.99 0-6.035-.674t-5.75-2.074q-2.713-1.398-4.864-3.55-2.144-2.15-3.38-5.062l5.46-2.059q.71 1.832 1.846 3.366 1.143 1.533 2.634 2.634 1.498 1.1 3.288 1.718 1.796.618 3.777.618 3.734 0 6.255-1.534 2.528-1.534 4.054-3.997 1.534-2.464 2.208-5.588.675-3.117.675-6.333v-2.542q-2.244 3.067-5.404 4.544t-6.93 1.477q-4.934 0-8.817-1.76-3.891-1.755-6.582-4.8-2.684-3.047-4.104-7.157t-1.42-8.819 1.42-8.818 4.104-7.157q2.69-3.046 6.582-4.8 3.883-1.753 8.818-1.753 2.5 0 4.764.745 2.258.746 4.146 2.11 1.889 1.362 3.323 3.286 1.44 1.932 2.265 4.282l5.602-9.38Zm-12.701 21.484q0-1.682-.17-3.55-.164-1.867-.576-3.699t-1.143-3.493q-.724-1.66-1.867-2.954-1.136-1.285-2.748-2.03-1.605-.753-3.735-.753t-3.7.767-2.69 2.06q-1.122 1.284-1.846 2.967-.731 1.682-1.143 3.514t-.582 3.678q-.163 1.853-.163 3.493 0 1.647.163 3.515.17 1.867.582 3.7t1.143 3.513q.724 1.676 1.846 2.968t2.69 2.06q1.57.76 3.7.76 1.946 0 3.458-.803t2.648-2.145q1.143-1.349 1.924-3.067.789-1.718 1.27-3.55.49-1.832.71-3.642.229-1.81.229-3.309"/><g stroke="#fff" stroke-width="13" transform="matrix(.83 0 0 .83 415.8 328.73)"><path d="M-633.213-406.262h441.752"/>undefined
        undefined</g><g transform="translate(397.07 338.33)scale(5.86)"><linearGradient id="a" x1="0" x2="1" y1="0" y2="0" gradientUnits="objectBoundingBox"><stop offset="0%" stop-color="#0f3054"/><stop offset="49.8%" stop-color="#3b8dcb"/><stop offset="100%" stop-color="#0f3054"/></linearGradient><path fill="url(#a)" d="M31.357-11.472v-2.94a7.87 7.87 0 0 0-7.86-7.87h-9.48a2 2 0 0 0-2 2v26.26h-4.9v-30.8a7.87 7.87 0 0 0-7.86-7.86h-31.92a7.87 7.87 0 0 0-7.87 7.86v2.91h-2.12a2 2 0 0 0 0 4h18.34a2 2 0 0 0 0-4h-12.22v-2.91a3.87 3.87 0 0 1 3.86-3.86h31.93a3.87 3.87 0 0 1 3.86 3.86v30.8h-16.98a9.64 9.64 0 0 0-9.41-7.63 9.64 9.64 0 0 0-9.42 7.63h-3.84v-9.22h1.21a2 2 0 0 0 0-4h-18.34a2 2 0 0 0 0 4h13.13v11.2a2 2 0 0 0 2 2h5.84a9.64 9.64 0 0 0 9.42 7.63 9.6 9.6 0 0 0 9.41-7.62h26.09c.93 4.35 4.8 7.63 9.42 7.63s8.5-3.28 9.42-7.63h5.8a2 2 0 0 0 2-2v-11.6a7.87 7.87 0 0 0-7.5-7.85m-54.64 25.08a5.64 5.64 0 1 1-.475-11.27 5.64 5.64 0 0 1 .475 11.27m44.92 0a5.64 5.64 0 1 1 .01-11.27 5.64 5.64 0 0 1 0 11.27m13.21-7.62h-3.8a9.64 9.64 0 0 0-15.04-5.8v-18.46h7.48a3.87 3.87 0 0 1 3.86 3.87v4.93c0 1.1.9 2 2 2h1.64a3.87 3.87 0 0 1 3.86 3.86Z" transform="translate(-50.01 -50)"/></g><g transform="translate(217.813 308.854)scale(5.86)"><linearGradient id="b" x1="0" x2="1" y1="0" y2="0" gradientUnits="objectBoundingBox"><stop offset="0%" stop-color="#0f3054"/><stop offset="49.8%" stop-color="#3b8dcb"/><stop offset="100%" stop-color="#0f3054"/></linearGradient><path fill="url(#b)" d="M-48.163-10.572h18.36a2 2 0 0 0 0-4h-18.36a2 2 0 0 0 0 4" transform="translate(-19.42 -44.97)"/></g></g><path fill="transparent" stroke="transparent" stroke-width=".185" d="M12.5 24.356h103v79.288h-103z"/></g></svg>