<svg xmlns="http://www.w3.org/2000/svg" xml:space="preserve" width="128" height="128" data-id="lg_KWFWqhNURw09rBSwkK" data-version="1" viewBox="0 0 128 128"><g data-padding="20"><g transform="translate(54.086 54.318)scale(.17623)"><rect width="290.399" height="142.38" x="-634.782" y="-564.218" fill="none" rx="0" ry="0" transform="matrix(.7 0 0 .7 348.75 630.52)"/><g transform="matrix(.7 0 0 .7 281.529 633.18)"><linearGradient id="a" x1="0" x2="1" y1="0" y2="0" gradientUnits="objectBoundingBox"><stop offset="0%" stop-color="#0f3054"/><stop offset="49.8%" stop-color="#3b8dcb"/><stop offset="100%" stop-color="#0f3054"/></linearGradient><path fill="url(#a)" d="M-223.603 182.572v-62.08q0-3.26.93-6.12.92-2.86 2.49-4.98t3.66-3.32 4.49-1.2h49.22v10.4h-46.08v72.22h31.62v-43.74h14.58l-.12 61.52q0 3.14-.89 5.94-.9 2.8-2.43 4.92-1.54 2.13-3.63 3.36-2.1 1.23-4.43 1.23h-3.08v-22.64h-34.76q-2.4 0-4.49-1.23-2.09-1.24-3.66-3.33t-2.49-4.92q-.93-2.83-.93-6.03" transform="translate(-296.44 -655.83)"/></g><path fill="url(#a)" d="M-141.153 182.572v-33.28q0-3.26.92-6.12t2.49-4.99q1.57-2.12 3.66-3.32t4.49-1.2h51.56q-.25 2.15-1.2 4.09-.96 1.94-2.4 3.35-1.45 1.42-3.29 2.25-1.85.83-3.88.83h-3.87q1.16.86 2.3 2.22 1.14 1.35 2.03 3.13.9 1.79 1.42 3.91t.52 4.58v24.55q0 3.2-.92 6.03t-2.52 4.92-3.73 3.33q-2.12 1.23-4.52 1.23h-31.5q-2.4 0-4.49-1.23-2.09-1.24-3.66-3.33t-2.49-4.92-.92-6.03m14.7 4.99h25.35v-43.38h-25.35Zm63.74-4.93v-31.62q0-3.69 1.01-6.89 1.02-3.2 2.8-5.54 1.79-2.34 4.22-3.66t5.26-1.32h41.46v53.96h13.35q-.24 2.15-1.2 4.09-.95 1.93-2.4 3.35-1.44 1.41-3.29 2.25-1.84.83-3.87.83h-6.59q-3.01 0-5.72-2.07-2.7-2.06-4.49-5.56-1.78 3.5-4.49 5.56-2.71 2.07-5.72 2.07h-18.64q-2.4 0-4.56-1.23-2.15-1.24-3.72-3.33t-2.49-4.89-.92-6m14.64 4.93h25.47v-43.38h-25.47Z" transform="matrix(.7 0 0 .7 74.028 174.106)"/><path fill="url(#a)" d="M14.867 182.452v-82.26h14.7v87.37h13.11q-.37 2.46-1.39 4.42-1.01 1.97-2.46 3.33-1.44 1.35-3.26 2.06-1.81.71-3.78.71h-5.17q-2.4 0-4.55-1.23-2.16-1.24-3.76-3.36t-2.52-4.95-.92-6.09" transform="matrix(.7 0 0 .7 74.021 174.106)"/><path fill="#34b943" d="M226.732-172.64h-43.524v-43.476a9.32 9.32 0 0 0-15.844-6.57l-40.263 40.215A207.84 207.84 0 0 0 16.1-214.345c-115.237.154-208.614 93.53-208.768 208.768 0 115.195 93.666 208.86 208.815 208.86S224.961 109.619 224.961-5.53c0-39.563-10.997-77.728-31.874-110.954l40.216-40.263a9.32 9.32 0 0 0-6.571-15.89M206.322-5.531c0 104.85-85.279 190.175-190.129 190.175S-174.028 99.366-174.028-5.531a190.361 190.361 0 0 1 287.569-163.38l-27.028 27.029a9.32 9.32 0 0 0-2.703 6.524v20.038a129.1 129.1 0 0 0-67.71-19.246c-71.158 0-129.035 57.877-129.035 129.035 0 71.159 57.877 129.036 129.082 129.036 71.251-.051 128.988-57.83 128.988-129.082 0-23.953-6.85-47.392-19.292-67.617h20.038a9.32 9.32 0 0 0 6.57-2.75l27.029-26.98a189.2 189.2 0 0 1 26.795 97.393M83.717-86.381 43.641-46.306a49.256 49.256 0 1 0-27.588 89.938 49.303 49.303 0 0 0 40.775-76.75l40.076-40.076h6.245a110.44 110.44 0 0 1 23.3 67.663c-.028 60.94-49.41 110.345-110.349 110.396-60.86 0-110.395-49.536-110.395-110.396s49.582-110.395 110.487-110.395c24.512 0 48.324 8.295 67.57 23.3ZM46.763-5.484a30.616 30.616 0 1 1-16.59-27.168L9.576-12.055A9.32 9.32 0 1 0 22.764 1.087l20.597-20.551c2.144 4.194 3.402 8.947 3.402 13.98m127.87-118.83-.233.233-32.294 32.294h-39.61v-39.61l32.201-32.247.373-.373 29.544-29.545v30.29c0 5.126 4.194 9.32 9.32 9.32h30.337Z"/><g transform="translate(561.45 627.244)scale(1.82)"><linearGradient id="b" x1="0" x2="1" y1="0" y2="0" gradientUnits="objectBoundingBox"><stop offset="0%" stop-color="#0f3054"/><stop offset="49.8%" stop-color="#3b8dcb"/><stop offset="100%" stop-color="#0f3054"/></linearGradient><path fill="url(#b)" d="m-96.601-128.026-11.4 1.3v.5c-.3 3-1.9 5.1-4.5 6-5 1.6-16.6 4.1-17.1 4.2h-.5l-13.2-.3c-1.4 0-2.4-1.1-2.4-2.5 0-1.3 1.1-2.4 2.5-2.3l12.3.3c.4 0 .8 0 1.1-.1 2.8-.6 11.3-2.5 15.3-3.8.8-.3 1.5-.5 1.6-2 .2-2.3-1.3-5.2-2.6-5.9-1.7-.9-6.8-.5-11.3-.2-4 .3-6.1.6-10.3.3-2.4-.1-5.5-1-7.9-1.5-7.3-1.5-12.1-.7-16.5 1-1.7.7-3.4 1.3-4.9 2-3.3 1.3-6.7 2.3-10.1 3l-6.5 1.3c-1.6.3-2.7 1.7-2.7 3.3v18.7c0 2.1 1.9 3.7 4 3.3l6.7-1.4c2.6-.5 5.4-.5 8 .1l20.4 4.5c4.6 1.4 9.5 1 13.9-1.1l40.2-19.2c.6-.3 1.1-.7 1.3-1.3 1.8-5-1.7-8.6-5.4-8.2" transform="translate(-50.09 -73.52)"/></g><g transform="translate(579.741 544.998)scale(1.82)"><linearGradient id="c" x1="0" x2="1" y1="0" y2="0" gradientUnits="objectBoundingBox"><stop offset="0%" stop-color="#0f3054"/><stop offset="49.8%" stop-color="#3b8dcb"/><stop offset="100%" stop-color="#0f3054"/></linearGradient><path fill="url(#c)" d="M-151.901-144.726c22.8-1.6 34.7-11.5 39.4-16.5-3.1 4.6-9.1 12-18.8 16.9-.6.3-.6 1.2 0 1.5 3.8 2.2 8.4 2.7 12.8 1 10.6-4.1 21.1-18.6 16.1-39-.3-1.2-2.1-1.3-2.5-.1-4.4 11.6-10.2 8.6-21.5 10.7-8.2 1.5-13.6 9.3-12.2 17.2-4 1.1-8.6 2-13.8 2.3-1.1.1-2.1.8-2.5 1.7q-.3.6-.3 1.5a3.1 3.1 0 0 0 3.3 2.8" transform="translate(-60.14 -28.33)"/></g></g><path fill="transparent" stroke="transparent" stroke-width=".184" d="M18.283 12.5h91.434v103H18.283z"/></g></svg>