<svg xmlns="http://www.w3.org/2000/svg" xml:space="preserve" width="128" height="128" data-id="lg_KWFWqhNURw09rBSwkK" data-version="1" viewBox="0 0 128 128"><g data-padding="20"><g transform="translate(54.032 53.582)scale(.17797)"><g transform="translate(396.45 356.18)scale(1.34)"><linearGradient id="a" x1="0" x2="1" y1="0" y2="0" gradientUnits="objectBoundingBox"><stop offset="0%" stop-color="#0f3054"/><stop offset="49.8%" stop-color="#3b8dcb"/><stop offset="100%" stop-color="#0f3054"/></linearGradient><rect width="406.625" height="168.366" x="-457.836" y="-334.325" fill="url(#a)" rx="0" ry="0"/></g><rect width="575.515" height="133.34" x="-639.368" y="-412.227" fill="none" rx="0" ry="0" transform="matrix(.97 0 0 .97 397.07 540.12)"/><path fill="#3d9970" d="M-166.812 240.393h-41.205v-7.44l29.76-64.67h-29.188v-8.012h41.206v7.44l-29.76 64.67h29.188Zm49.782 0h-38.917V160.27h38.917v8.012h-28.615v26.326h25.18v8.012h-25.18v29.76h28.615Zm22.892 0h-10.302v-78.978q4.356-1.26 8.76-1.775 4.403-.514 9.554-.514 9.157 0 14.715 2.58 5.548 2.57 8.012 8.585 2.454 6.004 2.454 16.306 0 7.672-1.31 12.765-1.318 5.092-3.84 8.012-2.513 2.92-6.296 4.404l13.735 28.615h-11.446l-12.59-26.326h-11.446Zm0-73.827v39.489h8.012q7.79 0 11.33-4.181 3.55-4.171 3.55-15.277 0-7.78-1.542-12.135-1.543-4.346-4.87-6.12-3.317-1.776-8.468-1.776Zm69.82 74.971q-7.663 0-13.22-3.608-5.55-3.599-8.47-12.59-2.92-8.983-2.92-25.007t2.92-25.007 8.469-12.59q5.558-3.609 13.22-3.609 7.79 0 13.28 3.609t8.41 12.59 2.92 25.007q0 16.024-2.92 25.006-2.92 8.992-8.41 12.59-5.49 3.61-13.28 3.61m0-6.867q2.747 0 5.327-1.543 2.57-1.542 4.636-5.325 2.057-3.773 3.2-10.476 1.146-6.693 1.146-16.994t-1.145-16.995-3.2-10.476q-2.067-3.773-4.637-5.325-2.58-1.542-5.326-1.542t-5.315 1.542q-2.58 1.552-4.637 5.325-2.066 3.783-3.21 10.476t-1.145 16.995 1.145 16.994q1.144 6.703 3.21 10.476 2.057 3.783 4.637 5.325 2.57 1.543 5.315 1.543m86.99 5.723h-12.59L36.918 160.27h10.3l10.302 61.808h.573l12.59-46.928h10.302l12.59 46.928h.573l10.3-61.808h10.302l-13.163 80.122h-12.59l-12.93-48.073h-.456Zm64.67 0H117.04l19.458-80.122h14.88l19.458 80.122h-10.302l-5.15-20.603h-22.892Zm16.374-68.676-9.506 40.06h19.458l-9.497-40.06Zm49.44 69.82q-5.15 0-9.845-.747-4.685-.737-7.324-1.542v-5.15h14.88q9.846 0 13.794-3.493t3.948-10.815q0-5.034-2.348-7.954t-6.062-4.86q-3.725-1.95-7.896-3.783-4.18-1.833-7.896-4.52-3.725-2.687-6.072-7.149-2.347-4.472-2.347-11.795 0-10.301 5.325-15.452t16.422-5.15q5.15 0 9.904.688 4.753.689 7.265 1.6v5.151h-14.88q-6.868 0-10.301 3.376-3.434 3.375-3.434 9.787 0 5.267 2.347 8.41 2.348 3.152 6.073 5.15 3.715 2.008 7.895 3.9 4.17 1.882 7.896 4.462 3.715 2.57 6.063 6.868 2.347 4.287 2.347 11.27 0 11.107-5.781 16.423-5.781 5.325-19.973 5.325m57.23-1.144h-10.3v-72.11h-18.314v-8.012H268.7v8.012h-18.312Zm66.387 0h-38.915V160.27h38.916v8.012h-28.616v26.326h25.18v8.012h-25.18v29.76h28.615Z"/><rect width="420.798" height="388.72" x="-562.009" y="-539.917" fill="none" rx="0" ry="0" transform="matrix(.97 0 0 .97 368.082 371.19)"/><path fill="#f2f2f2" d="M-34.372 140.343H-161.17l4.006-24.027L-37.707-67.548h-85.088l4.336-25.685H8.338L4.002-69.216l-119.126 183.863h85.089Zm95.769 0h-41.38l.669-233.576H58.39L57.06 79.271h1.33l56.396-129.126h32.03l11.018 129.127h1.33l59.392-172.505h37.714l-81.422 233.576h-41.38L121.458 6.87h-1.338Z"/></g><path fill="transparent" stroke="transparent" stroke-width=".185" d="M12.5 25.052h103v77.896h-103z"/></g></svg>